<?xml version="1.0" standalone="yes"?>
<!DOCTYPE svg PUBLIC "-//W3C//DTD SVG 20010904//EN" "http://www.w3.org/TR/2001/REC-SVG-20010904/DTD/svg10.dtd">
<svg xmlns="http://www.w3.org/2000/svg" version="1.0" width="900pt" height="312pt" viewBox="0 0 900.000000 312.000000" preserveAspectRatio="xMidYMid meet" style="zoom: 1;"><metadata>Created by potrace 1.10, written by Peter Selinger 2001-2011</metadata><g transform="translate(0.000000,312.000000) scale(0.200000,-0.200000)" fill="#000000" stroke="none"><path d="M6088 2370 c-19 -15 -20 -20 -9 -33 7 -9 28 -21 47 -27 44 -15 43 -32 -1 -53 -77 -37 -109 -20 -123 66 -10 56 -38 58 -60 3 -20 -50 -78 -104 -120 -112 -32 -6 -34 -9 -28 -37 9 -47 25 -61 46 -42 18 17 46 20 54 6 7 -10 -42 -54 -85 -77 -33 -17 -37 -43 -11 -67 20 -19 67 -23 77 -7 10 16 55 12 55 -4 0 -22 -49 -63 -120 -100 -52 -27 -65 -39 -65 -58 0 -22 3 -23 54 -21 39 2 65 10 90 28 70 48 100 83 110 125 5 23 16 49 25 59 20 22 21 85 1 101 -17 14 -20 56 -4 65 5 4 22 4 36 0 20 -5 24 -11 20 -31 -2 -13 0 -27 4 -30 17 -10 9 -103 -12 -148 -25 -49 -20 -81 11 -73 23 6 43 -15 38 -40 -3 -18 -28 -25 -126 -40 -51 -7 -60 -18 -36 -44 11 -12 30 -19 55 -19 35 0 58 -14 45 -27 -3 -3 -47 -12 -98 -19 -51 -8 -126 -21 -165 -31 -65 -15 -73 -19 -73 -40 0 -13 8 -26 18 -30 9 -3 27 -15 39 -26 28 -25 85 -18 122 16 31 29 94 59 181 87 95 31 304 26 425 -9 79 -24 104 -23 130 3 31 31 33 71 4 86 -13 8 -75 11 -172 9 -162 -3 -200 3 -195 29 2 11 21 19 58 26 l55 11 0 70 c-1 39 4 73 10 77 5 4 40 8 77 8 57 0 69 3 78 20 9 17 6 27 -17 56 -15 20 -37 40 -50 45 -37 14 -40 39 -9 66 15 12 34 23 42 23 11 0 14 8 12 27 -4 34 -42 46 -115 38 -43 -5 -57 -12 -78 -38 -14 -18 -30 -38 -37 -46 -8 -10 -7 -25 6 -61 30 -83 10 -132 -39 -96 -14 10 -19 25 -19 57 1 62 14 121 32 141 19 22 8 52 -17 45 -10 -2 -24 -1 -31 3 -18 11 -5 40 18 40 22 0 60 26 50 35 -10 11 -78 26 -135 30 -40 3 -58 -1 -75 -15z m-123 -161 c0 -18 -6 -25 -24 -27 -35 -5 -44 11 -20 37 25 27 44 23 44 -10z m216 11 c34 -19 18 -50 -27 -50 -20 0 -29 27 -14 45 15 18 16 18 41 5z m229 -53 c0 -24 7 -52 15 -63 21 -28 19 -64 -4 -64 -47 0 -80 80 -56 136 21 50 45 45 45 -9z m-215 -62 c0 -13 -8 -21 -24 -23 -28 -4 -46 11 -37 33 9 25 61 16 61 -10z m-208 -21 c8 -21 -30 -59 -51 -51 -16 6 -22 48 -9 60 12 13 54 7 60 -9z m221 -69 c3 -28 -8 -42 -41 -50 -35 -9 -46 15 -22 51 20 30 59 30 63 -1z m103 -73 c13 -36 -21 -64 -74 -60 -37 3 -42 6 -45 30 -3 21 3 30 25 42 40 22 84 17 94 -12z m-114 -124 c10 -17 4 -51 -11 -60 -6 -4 -21 -8 -33 -8 -31 0 -31 43 -1 64 27 19 34 20 45 4z"></path><path d="M7082 2351 c-7 -4 -20 -36 -28 -72 -8 -35 -21 -70 -28 -79 -37 -42 -54 -110 -27 -110 4 0 14 -13 24 -29 12 -20 17 -51 17 -101 0 -57 4 -77 20 -97 20 -26 26 -78 12 -100 -7 -11 -164 -67 -262 -93 -44 -12 -68 -43 -51 -64 6 -7 39 -16 74 -19 59 -5 64 -4 93 24 25 24 43 31 87 36 76 8 87 -2 87 -82 0 -65 -17 -95 -53 -95 -35 0 -26 -23 29 -75 65 -63 102 -72 124 -31 16 32 16 56 0 193 -8 62 -11 115 -8 119 20 19 250 0 316 -27 28 -12 37 -12 60 1 39 23 39 52 0 96 -33 35 -35 36 -73 25 -22 -6 -93 -11 -157 -11 -118 0 -118 0 -118 24 0 13 9 30 20 37 17 12 21 32 28 147 7 109 12 134 26 145 44 32 -15 75 -123 90 -24 3 -45 8 -48 10 -10 11 8 44 31 55 35 16 39 48 9 72 -27 21 -59 25 -81 11z m72 -227 c13 -5 16 -24 16 -104 0 -105 -10 -128 -50 -115 -24 8 -26 32 -4 63 15 22 14 25 -11 62 -36 52 -29 77 32 99 1 1 8 -2 17 -5z m26 -395 c0 -18 -2 -19 -15 -9 -8 7 -15 16 -15 21 0 5 7 9 15 9 9 0 15 -9 15 -21z"></path><path d="M7991 2324 c-12 -15 -21 -30 -21 -34 0 -11 -121 -86 -160 -99 -19 -6 -48 -22 -65 -36 l-30 -25 21 -17 c31 -26 46 -60 36 -80 -5 -10 -15 -73 -22 -141 -13 -126 -10 -144 25 -212 7 -14 16 -45 20 -70 11 -73 26 -112 54 -137 28 -25 63 -25 171 -3 25 6 87 12 139 14 104 4 87 12 164 -76 61 -71 138 -58 157 27 12 52 12 202 -1 290 -6 39 -11 86 -12 105 -1 47 20 198 39 271 8 33 13 67 10 77 -8 24 -154 90 -266 119 -74 19 -225 53 -237 53 -1 0 -11 -12 -22 -26z m262 -96 c114 -30 121 -40 112 -147 -3 -47 -9 -122 -11 -166 -2 -43 -8 -82 -12 -86 -14 -14 -209 -22 -217 -9 -13 21 35 60 76 60 39 0 49 11 49 54 0 12 11 45 25 72 29 56 31 86 10 104 -15 12 -29 11 -122 -6 -28 -5 -31 -4 -26 14 2 11 15 24 29 30 15 8 22 17 18 27 -3 8 -9 15 -13 16 -50 6 -76 26 -60 45 16 19 50 17 142 -8z m-253 -52 c0 -13 -8 -27 -17 -31 -17 -6 -17 -7 0 -19 21 -16 22 -52 1 -60 -25 -10 -69 -7 -81 5 -7 7 -17 2 -32 -19 -11 -17 -21 -33 -21 -36 0 -3 20 -28 45 -56 27 -30 45 -60 45 -75 0 -40 11 -55 40 -55 16 0 32 -5 35 -10 13 -22 -17 -38 -78 -43 -34 -3 -74 -8 -88 -12 -26 -7 -26 -7 -33 67 -8 93 6 234 27 275 18 35 56 64 102 81 46 16 55 14 55 -12z m90 -106 c0 -5 -9 -14 -20 -20 -15 -8 -20 -8 -20 3 0 8 3 17 7 20 10 10 33 8 33 -3z m89 -29 c22 -14 8 -89 -23 -120 -35 -35 -46 -19 -39 56 5 59 9 65 43 72 3 0 11 -3 19 -8z m-146 -17 c3 -3 -4 -21 -14 -39 -20 -33 -20 -33 1 -40 14 -4 20 -15 20 -36 0 -27 -3 -30 -27 -27 -21 2 -30 11 -37 33 -5 17 -13 40 -19 52 -8 18 -6 27 8 43 17 19 55 27 68 14z m125 -297 c4 -37 -20 -74 -63 -94 -36 -17 -37 -19 -39 -63 -1 -22 -6 -25 -81 -36 -44 -6 -85 -7 -91 -3 -6 5 -16 33 -23 64 -7 30 -17 57 -22 60 -5 4 -9 15 -9 26 0 16 7 19 48 17 26 -1 63 2 83 7 33 6 38 5 44 -14 5 -18 13 -22 43 -19 34 3 37 5 35 33 -4 47 3 57 39 53 28 -2 34 -8 36 -31z m214 -52 c-4 -107 -10 -133 -34 -146 -15 -8 -24 -7 -37 5 -10 9 -29 16 -43 16 -41 0 -53 23 -34 64 9 19 16 56 16 83 0 27 2 52 4 54 2 2 33 4 68 4 l63 0 -3 -80z"></path><path d="M4010 2325 c-21 -26 -3 -64 45 -93 36 -21 45 -32 45 -54 0 -22 -7 -31 -36 -43 -20 -8 -46 -15 -58 -15 -12 0 -26 -4 -32 -9 -5 -6 -44 -21 -88 -35 -81 -27 -153 -32 -218 -17 -42 10 -58 0 -58 -37 0 -27 75 -112 98 -112 7 0 28 11 46 25 18 14 48 28 67 31 19 4 47 13 62 21 58 29 76 -6 27 -50 -16 -15 -30 -32 -30 -38 0 -6 15 -25 33 -41 44 -42 67 -78 67 -109 0 -34 37 -67 80 -71 l35 -3 0 -70 c0 -68 -1 -70 -30 -84 -70 -34 -71 -70 -3 -116 68 -45 117 -48 144 -7 28 42 26 165 -3 213 -39 63 -29 79 52 79 59 0 67 13 59 98 l-7 70 37 35 c41 40 45 68 15 98 -20 20 -27 21 -153 14 l-131 -6 -32 -35 c-18 -19 -36 -34 -40 -34 -16 0 -33 24 -33 46 0 17 8 24 32 29 17 4 45 16 62 26 69 42 79 44 222 43 78 -1 168 -4 201 -8 49 -5 64 -4 77 9 23 23 21 29 -22 75 -45 46 -78 51 -159 24 -26 -9 -79 -17 -117 -18 l-69 -1 -38 75 c-21 41 -48 83 -59 92 -27 22 -73 23 -90 3z m188 -446 c2 -19 -6 -34 -33 -58 -71 -62 -140 -25 -102 55 17 35 18 35 75 32 53 -3 57 -5 60 -29z"></path><path d="M8625 2320 c-3 -6 1 -13 10 -16 19 -8 30 0 20 15 -8 14 -22 14 -30 1z"></path><path d="M5041 2306 c-7 -8 -11 -31 -9 -52 3 -35 6 -38 58 -56 30 -10 61 -21 69 -23 25 -10 -3 -26 -75 -45 -38 -10 -91 -30 -119 -45 -47 -25 -56 -27 -147 -22 -100 5 -112 1 -99 -35 3 -9 19 -26 34 -38 22 -17 36 -21 65 -16 20 4 56 8 80 10 25 2 57 13 79 29 20 14 40 24 45 21 28 -17 -19 -65 -130 -135 -95 -59 -95 -95 1 -83 47 7 47 7 47 -23 0 -41 34 -80 80 -93 71 -19 61 -52 -28 -91 -38 -17 -59 -18 -171 -13 -113 6 -129 5 -144 -11 -15 -15 -16 -47 -2 -63 10 -12 155 -32 228 -32 98 0 141 15 195 70 17 16 36 30 44 30 7 0 54 -39 103 -87 50 -47 105 -92 124 -100 36 -15 82 -10 116 13 12 9 47 14 90 14 69 0 135 16 156 37 18 18 -25 53 -65 53 -18 0 -39 6 -45 14 -14 17 -87 36 -137 36 -20 0 -72 12 -115 26 -59 19 -86 35 -109 60 -29 34 -30 37 -24 105 6 64 5 72 -16 94 -13 14 -35 25 -48 25 -23 0 -24 -3 -18 -39 8 -49 -10 -66 -60 -58 -71 12 -95 61 -49 103 23 21 24 28 19 82 -6 55 -5 61 17 75 34 21 115 36 238 44 58 3 109 10 112 16 10 15 -11 66 -31 77 -26 14 -56 12 -68 -3 -7 -8 -32 -13 -64 -12 l-53 0 -5 47 c-7 58 -29 83 -85 97 -57 14 -70 14 -84 -3z"></path><path d="M1445 2285 c-22 -8 -50 -15 -63 -15 -12 0 -30 -4 -40 -10 -9 -5 -29 -14 -43 -19 -16 -6 -32 -24 -43 -48 -9 -21 -21 -46 -26 -55 -6 -10 -10 -25 -10 -33 0 -20 44 -20 60 0 7 8 16 15 21 15 4 0 25 11 45 25 78 53 86 15 17 -88 -26 -39 -56 -89 -67 -111 l-21 -41 -92 4 c-93 3 -150 -8 -233 -47 -165 -79 -246 -245 -192 -397 30 -82 60 -133 112 -185 28 -28 50 -54 50 -60 0 -5 -12 -28 -27 -52 -16 -24 -33 -52 -39 -62 -17 -32 -42 -43 -56 -25 -31 37 -66 49 -149 49 -74 0 -87 -3 -129 -30 -95 -61 -114 -164 -41 -233 130 -123 325 -73 415 105 47 95 95 181 106 192 6 6 36 1 77 -12 103 -32 218 -42 373 -31 214 15 340 60 435 154 49 50 71 89 91 163 24 90 16 165 -26 258 -22 49 -103 135 -145 155 -33 16 -48 59 -20 59 28 0 78 31 116 73 81 86 56 206 -54 263 -99 50 -313 71 -402 39z m248 -96 c42 -9 66 -21 92 -46 42 -41 44 -68 7 -108 -40 -45 -76 -65 -129 -72 -65 -8 -76 -15 -103 -66 -29 -55 -22 -77 25 -77 59 0 161 -55 205 -111 69 -87 76 -160 26 -262 -60 -123 -158 -181 -343 -203 -135 -16 -350 -4 -390 22 -52 33 -11 66 70 57 55 -7 155 11 212 38 54 25 118 93 140 149 26 67 24 175 -3 225 -27 50 -50 76 -85 99 -32 22 -35 53 -7 89 11 14 20 28 20 32 0 7 79 178 99 215 7 13 32 20 97 29 6 0 36 -4 67 -10z m-483 -410 c0 -24 -33 -79 -49 -80 -9 0 -50 -2 -91 -2 l-74 -2 -23 -40 c-30 -52 -31 -130 -2 -184 11 -22 27 -42 35 -45 10 -4 14 -16 12 -33 -3 -25 -7 -28 -37 -28 -31 0 -41 7 -80 59 l-46 58 0 82 c0 73 3 85 28 118 34 45 83 75 151 93 63 17 176 19 176 4z m148 -49 c12 -11 26 -37 33 -59 15 -52 -9 -125 -57 -174 -30 -30 -45 -36 -96 -42 -80 -9 -89 1 -50 58 16 24 51 88 76 141 26 53 52 96 59 96 7 0 23 -9 35 -20z m-224 -86 c4 -9 0 -24 -8 -33 -8 -9 -18 -29 -21 -46 -10 -40 -32 -57 -56 -44 -32 17 -23 58 21 101 45 42 55 46 64 22z m-370 -629 c8 -21 -3 -45 -20 -45 -8 0 -14 10 -14 23 0 36 22 51 34 22z m-56 -37 l-3 -33 -64 -1 c-46 0 -65 4 -69 14 -7 19 27 44 49 37 10 -3 20 -1 24 5 3 5 20 10 36 10 28 0 30 -2 27 -32z"></path><path d="M1597 2128 c-9 -7 -20 -27 -23 -45 -5 -26 -1 -37 21 -58 21 -22 32 -26 56 -21 59 12 90 84 51 119 -22 20 -81 22 -105 5z"></path><path d="M3119 2285 c-17 -9 -29 -26 -33 -46 -3 -17 -6 -142 -6 -276 l0 -245 30 -65 c61 -132 120 -182 243 -207 99 -21 118 -20 193 5 118 40 134 98 49 178 -24 22 -46 41 -49 41 -3 0 -28 -13 -54 -30 -40 -24 -60 -30 -108 -30 -101 0 -154 51 -154 149 0 74 18 91 96 91 58 0 78 15 88 68 9 48 -1 76 -34 95 -39 23 -41 23 -94 -24 -45 -40 -85 -48 -72 -14 3 8 8 38 12 67 5 39 17 66 49 107 23 31 45 61 48 68 32 55 -129 109 -204 68z"></path><path d="M7402 2248 c-5 -7 -15 -31 -22 -53 -7 -22 -16 -47 -21 -55 -35 -61 -41 -82 -30 -93 16 -16 14 -120 -4 -153 -30 -57 -8 -90 41 -63 20 10 34 10 67 2 67 -18 121 19 115 79 -2 27 -11 37 -45 56 -53 29 -57 55 -10 68 25 8 33 16 35 39 3 19 -2 33 -14 42 -28 20 -41 16 -64 -22 -23 -37 -60 -48 -60 -18 0 31 49 90 81 97 43 8 33 47 -18 74 -28 15 -38 15 -51 0z m46 -309 c37 -46 12 -76 -39 -49 -12 7 -19 21 -19 39 0 50 23 55 58 10z"></path><path d="M6854 2206 c-3 -8 -1 -23 5 -35 14 -25 2 -56 -34 -94 -27 -28 -31 -46 -27 -120 2 -33 6 -40 32 -50 31 -12 40 -43 19 -64 -6 -6 -9 -26 -7 -44 l3 -34 62 0 c46 0 66 5 82 19 26 23 29 87 5 107 -8 7 -21 24 -29 38 -11 22 -11 30 1 51 22 41 17 65 -21 91 -40 27 -45 57 -15 84 24 22 26 51 4 59 -29 11 -75 6 -80 -8z m48 -163 c22 -20 23 -46 2 -67 -21 -22 -33 -20 -45 7 -7 15 -7 31 0 50 12 31 18 33 43 10z m53 -174 c0 -23 -5 -35 -17 -37 -21 -4 -32 31 -18 58 16 30 35 19 35 -21z"></path><path d="M2822 2134 c-29 -20 -28 -29 13 -97 27 -46 35 -69 35 -108 0 -46 -2 -49 -25 -49 -14 0 -44 12 -67 26 -56 36 -92 25 -96 -27 -3 -32 2 -41 39 -73 42 -36 72 -45 84 -26 8 13 62 13 70 0 4 -6 4 -33 0 -59 -7 -54 -11 -56 -135 -96 -115 -37 -121 -83 -21 -187 46 -49 65 -48 92 5 12 23 35 53 51 66 16 13 33 33 37 45 7 16 17 21 47 21 l39 0 5 225 c4 170 9 232 20 254 14 28 13 29 -25 62 -34 28 -48 34 -90 34 -30 0 -60 -6 -73 -16z"></path><path d="M5180 1988 c0 -56 55 -95 174 -122 94 -22 126 -21 126 4 0 29 -43 93 -76 115 -19 12 -50 18 -103 20 -42 1 -86 6 -98 10 -21 7 -23 4 -23 -27z"></path><path d="M6136 1655 c-15 -8 -35 -15 -43 -15 -17 0 -92 -37 -115 -58 -14 -11 -15 -18 -7 -29 6 -7 17 -13 23 -13 17 0 56 -43 56 -61 0 -8 7 -24 15 -35 8 -10 15 -29 15 -42 0 -56 36 -78 72 -45 31 28 81 22 118 -15 35 -36 55 -39 88 -16 20 14 22 23 22 122 1 74 5 115 15 132 27 47 20 54 -62 73 -95 21 -159 22 -197 2z m93 -41 c57 -12 85 -119 41 -159 -28 -26 -102 -32 -124 -10 -30 30 -16 50 34 50 41 0 45 2 45 25 0 23 -4 25 -57 28 -48 2 -58 6 -58 21 0 21 16 37 45 44 31 7 40 7 74 1z"></path><path d="M4305 1641 c-45 -10 -38 -53 20 -110 43 -43 48 -45 102 -46 48 0 58 3 61 18 4 18 -26 88 -51 119 -16 20 -86 30 -132 19z"></path><path d="M3900 1618 c-94 -33 -110 -65 -67 -129 32 -48 51 -47 98 3 68 72 89 141 44 144 -11 1 -45 -7 -75 -18z"></path><path d="M7256 1601 c-3 -5 3 -29 14 -54 37 -83 137 -145 190 -117 15 8 18 17 13 43 -9 52 -27 71 -97 105 -65 32 -110 40 -120 23z"></path><path d="M6950 1566 c-14 -8 -38 -18 -55 -22 -25 -8 -30 -15 -33 -45 -2 -29 1 -37 21 -48 41 -22 84 -6 107 39 39 76 21 109 -40 76z"></path><path d="M2660 1136 c-11 -11 -14 -294 -4 -320 5 -13 23 -16 90 -16 82 0 84 1 119 35 41 42 46 81 15 123 -18 25 -18 30 -6 67 27 77 -11 112 -127 117 -43 2 -82 -1 -87 -6z m158 -58 c7 -7 12 -22 12 -35 0 -26 -46 -43 -98 -35 -30 4 -32 7 -32 43 l0 39 53 0 c29 0 58 -5 65 -12z m10 -134 c17 -5 15 -59 -2 -73 -8 -7 -37 -11 -68 -9 l-53 3 -3 42 c-2 33 1 42 15 46 18 4 86 -1 111 -9z"></path><path d="M3210 1135 c-18 -22 -1 -50 31 -50 20 0 24 5 24 30 0 23 -5 31 -21 33 -11 2 -27 -4 -34 -13z"></path><path d="M3321 1131 c-15 -27 11 -60 36 -45 23 14 29 44 11 55 -21 14 -37 10 -47 -10z"></path><path d="M3437 1144 c-12 -12 -8 -51 6 -63 21 -17 55 24 41 47 -12 19 -36 27 -47 16z"></path><path d="M4255 1139 c-38 -13 -68 -54 -68 -91 0 -41 27 -63 113 -91 41 -13 79 -31 85 -41 16 -26 -6 -51 -50 -54 -56 -5 -78 4 -98 38 -18 30 -56 42 -58 18 -3 -36 5 -56 37 -84 58 -53 140 -54 194 -4 53 50 35 141 -30 155 -16 4 -32 11 -35 16 -4 5 -19 9 -35 9 -54 0 -82 58 -39 81 30 16 78 4 101 -26 11 -14 28 -25 39 -25 31 0 22 57 -12 83 -31 23 -101 30 -144 16z"></path><path d="M5380 1140 c-13 -7 -15 -33 -13 -162 2 -84 3 -159 3 -165 0 -18 47 -16 54 2 3 8 3 44 -1 79 -7 76 11 116 52 116 36 0 48 -32 42 -109 -6 -72 4 -101 32 -101 25 0 28 19 22 128 -5 83 -9 96 -30 113 -26 21 -71 25 -88 8 -20 -20 -34 0 -27 37 4 21 2 40 -6 49 -14 17 -19 18 -40 5z"></path><path d="M6606 1140 c-40 -12 -66 -38 -87 -88 -27 -62 -24 -108 10 -168 43 -74 95 -102 166 -88 64 12 135 103 135 174 0 41 -27 110 -54 137 -39 39 -106 52 -170 33z m92 -51 c74 -26 98 -154 38 -206 -39 -33 -105 -32 -143 3 -24 22 -28 33 -28 84 0 49 5 63 25 85 22 24 52 42 71 44 3 1 20 -4 37 -10z"></path><path d="M7267 1139 c-15 -9 -17 -17 -10 -42 4 -18 8 -90 8 -162 0 -126 1 -130 22 -133 29 -4 37 24 28 98 -6 49 -4 63 12 84 23 33 58 33 79 1 13 -20 16 -41 12 -93 -6 -78 -3 -92 22 -92 26 0 28 12 22 120 -6 132 -32 157 -132 129 -11 -3 -15 4 -13 26 4 69 -10 87 -50 64z"></path><path d="M8025 1103 c-4 -15 -10 -36 -16 -45 -12 -24 -11 -46 3 -50 8 -3 11 -31 10 -87 -1 -75 1 -85 23 -107 18 -18 29 -22 46 -15 33 11 33 24 4 59 -20 24 -25 41 -25 85 0 45 4 57 23 70 21 14 21 16 5 33 -9 11 -18 33 -20 49 -2 22 -9 31 -25 33 -17 3 -24 -3 -28 -25z"></path><path d="M1640 1059 c-64 -26 -79 -70 -30 -88 34 -11 48 -37 31 -54 -8 -8 -19 -5 -41 12 -40 29 -70 21 -70 -20 0 -27 -2 -29 -40 -29 -29 0 -40 4 -40 15 0 9 8 19 18 22 22 8 32 23 32 50 0 12 11 30 26 40 17 13 23 24 18 36 -5 14 -20 17 -88 17 l-82 0 -25 -41 c-13 -23 -35 -62 -49 -87 -27 -48 -44 -59 -70 -42 -13 8 -13 13 -2 30 19 31 7 38 -45 29 -27 -5 -86 -7 -133 -5 -70 4 -88 2 -103 -12 -20 -18 -49 -80 -43 -91 2 -3 309 -6 683 -6 l678 0 3 22 c2 15 13 24 33 28 23 5 29 12 29 34 l0 27 -144 -1 -144 0 -22 -32 c-17 -24 -30 -32 -61 -35 -62 -6 -62 4 3 53 41 30 64 84 50 115 -10 22 -18 24 -73 24 -71 0 -99 -14 -147 -73 -33 -41 -34 -48 -17 -104 7 -22 5 -22 -46 -16 -30 3 -56 8 -58 10 -3 2 10 17 27 33 18 16 32 33 32 39 0 5 -16 23 -36 39 -20 16 -31 33 -26 36 6 3 17 -1 26 -10 25 -24 60 -14 64 19 3 26 2 27 -45 26 -26 0 -59 -5 -73 -10z m-180 -37 c0 -11 -8 -26 -19 -36 -11 -10 -16 -25 -14 -40 6 -28 -9 -40 -37 -31 -26 8 -25 21 5 57 14 16 25 38 25 49 0 12 7 19 20 19 13 0 20 -7 20 -18z m480 -21 c0 -24 -59 -82 -79 -79 -8 2 -19 11 -25 21 -9 15 -5 23 22 48 38 34 82 39 82 10z"></path><path d="M2190 1062 l-105 -3 -17 -35 c-11 -25 -13 -36 -5 -39 7 -2 72 -5 146 -8 134 -4 134 -4 164 23 23 20 28 31 23 48 -6 19 -14 22 -54 20 -26 -1 -94 -4 -152 -6z"></path><path d="M3013 1057 c-39 -22 -73 -77 -73 -119 0 -126 118 -191 193 -108 16 18 26 37 24 43 -6 19 -40 21 -52 3 -21 -28 -70 -31 -95 -6 -35 35 -21 45 68 48 69 2 82 5 87 22 8 25 -17 71 -55 104 -34 28 -63 32 -97 13z m81 -69 c21 -30 12 -38 -44 -38 -27 0 -51 4 -54 8 -11 18 25 52 54 52 18 0 34 -8 44 -22z"></path><path d="M3625 1060 c-3 -5 -24 -10 -45 -10 -47 0 -48 -3 -49 -124 -1 -110 3 -126 35 -126 27 0 28 4 24 98 -2 69 16 112 49 112 34 0 45 -27 45 -118 1 -86 1 -87 26 -87 25 0 25 1 28 90 2 50 0 100 -3 113 -10 39 -94 79 -110 52z"></path><path d="M3839 1047 c-68 -45 -76 -154 -16 -210 28 -26 36 -28 74 -23 38 5 43 3 43 -14 0 -11 -9 -24 -21 -30 -25 -14 -75 -4 -83 16 -3 8 -15 14 -26 14 -28 0 -26 -40 3 -68 34 -32 115 -31 150 2 31 29 39 76 35 211 l-3 100 -35 3 c-19 2 -39 8 -44 13 -16 15 -41 10 -77 -14z m90 -63 c28 -36 27 -79 -4 -109 -30 -31 -40 -31 -71 0 -21 21 -24 31 -18 62 13 72 56 94 93 47z"></path><path d="M4813 1059 c-6 -6 -26 -11 -44 -12 l-34 -2 -5 -105 c-7 -132 -5 -140 31 -140 l29 0 -1 91 c-2 102 9 127 55 115 25 -6 25 -9 28 -104 3 -89 5 -97 23 -97 18 0 20 8 23 85 3 91 18 123 56 118 19 -3 21 -12 26 -103 5 -99 5 -100 30 -100 25 0 25 1 28 99 3 111 -6 134 -57 156 -27 11 -34 10 -50 -4 -22 -20 -65 -21 -81 -1 -15 18 -41 20 -57 4z"></path><path d="M5197 1059 c-10 -6 -29 -8 -42 -5 -17 4 -27 1 -33 -11 -4 -10 -8 -88 -8 -173 l1 -155 25 0 c23 0 25 3 23 46 l-3 46 48 -4 c36 -3 52 1 70 16 25 22 52 79 52 110 0 41 -32 101 -65 121 -37 23 -43 24 -68 9z m55 -66 c26 -23 25 -96 -2 -123 -41 -41 -90 -12 -90 52 0 73 49 111 92 71z"></path><path d="M5660 1032 c-38 -37 -40 -42 -40 -100 0 -51 4 -65 27 -92 49 -58 108 -61 162 -8 29 28 31 36 31 97 -1 71 -10 90 -62 124 -42 27 -73 21 -118 -21z m102 -34 c26 -22 36 -69 22 -104 -15 -37 -47 -48 -84 -31 -21 10 -25 20 -28 64 -3 44 0 53 20 67 27 19 49 20 70 4z"></path><path d="M5974 1059 c-3 -6 -20 -9 -36 -7 -42 7 -49 -15 -46 -139 3 -100 4 -108 23 -108 18 0 20 8 23 85 3 88 17 120 52 120 37 0 52 -34 44 -98 -9 -81 0 -114 29 -110 20 3 22 9 25 83 4 113 -3 142 -41 165 -36 22 -62 25 -73 9z"></path><path d="M6308 1060 c-14 -9 -43 -84 -50 -134 -2 -11 -8 -21 -14 -23 -11 -4 -26 30 -50 111 -11 37 -39 55 -56 38 -10 -10 -8 -26 11 -80 13 -37 30 -76 36 -87 33 -53 24 -115 -15 -115 -28 0 -46 -38 -27 -57 38 -38 100 18 131 117 18 57 36 102 63 156 16 33 15 75 -2 80 -5 2 -17 -1 -27 -6z"></path><path d="M7082 1050 c-32 -20 -71 -86 -72 -122 0 -37 32 -94 65 -117 45 -30 93 -23 129 20 47 56 20 91 -34 46 -26 -22 -34 -24 -60 -16 -23 8 -31 19 -36 45 -14 76 43 130 90 85 33 -31 58 -28 54 6 -2 18 -15 35 -37 50 -42 28 -57 29 -99 3z"></path><path d="M7583 1057 c-39 -22 -64 -65 -70 -119 -4 -47 -2 -57 25 -94 31 -43 78 -62 118 -48 30 11 74 56 74 76 0 25 -38 23 -66 -3 -27 -25 -78 -19 -95 12 -17 32 -2 39 82 39 l79 0 0 38 c-1 38 -18 65 -60 95 -29 20 -56 21 -87 4z m82 -77 c0 -22 -5 -25 -39 -28 -59 -5 -70 2 -50 33 14 21 24 25 53 23 31 -3 36 -7 36 -28z"></path><path d="M7817 1052 c-32 -20 -44 -54 -31 -91 7 -19 22 -30 57 -42 56 -19 72 -32 64 -53 -9 -22 -53 -20 -77 4 -11 11 -29 20 -41 20 -18 0 -20 -4 -14 -27 9 -39 22 -51 65 -63 65 -18 135 29 128 86 -3 29 -7 32 -108 78 -14 7 -26 19 -28 29 -4 22 50 24 68 2 14 -17 46 -20 55 -5 16 25 -49 81 -92 79 -10 0 -31 -8 -46 -17z"></path><path d="M8225 1058 c-11 -7 -31 -12 -45 -12 -24 -1 -25 -4 -34 -88 -10 -107 -3 -158 24 -158 28 0 35 18 32 85 -4 80 9 115 43 115 29 0 43 25 28 48 -13 21 -24 24 -48 10z"></path><path d="M8334 1034 c-19 -20 -32 -40 -29 -45 10 -15 53 -10 63 7 6 10 20 14 43 12 29 -2 34 -7 34 -28 0 -23 -4 -25 -52 -28 -44 -3 -56 -8 -78 -33 -31 -38 -32 -61 -2 -93 32 -35 69 -42 106 -20 26 16 33 16 56 4 15 -8 29 -10 34 -4 5 5 6 56 2 114 l-6 104 -34 23 c-52 35 -96 31 -137 -13z m118 -139 c-2 -11 -9 -26 -14 -32 -14 -18 -63 -16 -78 2 -23 27 18 55 75 51 14 -1 19 -7 17 -21z"></path><path d="M1014 1043 c-3 -11 -17 -26 -30 -34 -13 -7 -23 -17 -21 -22 4 -14 273 -17 292 -3 8 6 18 26 21 44 5 26 3 32 -11 32 -9 0 -19 -9 -22 -20 -6 -24 -53 -28 -53 -5 0 11 -12 15 -47 15 -27 0 -65 3 -86 7 -33 5 -39 3 -43 -14z m146 -13 c0 -5 -13 -10 -30 -10 -16 0 -30 5 -30 10 0 6 14 10 30 10 17 0 30 -4 30 -10z"></path><path d="M3441 1041 c-13 -24 -14 -210 -2 -230 5 -8 16 -11 25 -8 22 9 24 228 2 246 -12 10 -17 8 -25 -8z"></path><path d="M4487 1053 c-16 -16 0 -68 50 -165 16 -32 20 -95 7 -108 -5 -4 -20 -10 -34 -12 -36 -5 -40 -44 -5 -60 46 -21 88 25 120 132 9 30 27 83 41 117 27 68 31 103 12 103 -21 0 -35 -14 -42 -40 -4 -14 -11 -34 -16 -45 -5 -11 -11 -33 -15 -50 l-7 -30 -19 23 c-10 13 -21 40 -25 60 -11 61 -45 98 -67 75z"></path><path d="M6923 1053 c-18 -2 -36 -12 -41 -21 -4 -9 -7 -64 -7 -122 l0 -105 25 0 c25 0 25 1 25 81 0 80 12 114 39 114 7 0 21 6 31 14 16 12 17 16 6 30 -7 9 -21 15 -30 14 -9 0 -31 -3 -48 -5z"></path><path d="M3224 1038 c-4 -6 -8 -58 -9 -115 -1 -79 2 -106 13 -115 27 -23 40 16 41 115 0 51 -2 100 -5 110 -6 19 -29 23 -40 5z"></path><path d="M3327 1043 c-4 -3 -7 -64 -7 -135 0 -127 0 -129 -25 -140 -28 -12 -42 -45 -27 -60 6 -6 26 -8 45 -4 50 9 60 42 60 195 0 70 -3 133 -7 139 -8 13 -29 16 -39 5z"></path></g></svg>