<?xml version="1.0" standalone="yes"?>
<!DOCTYPE svg PUBLIC "-//W3C//DTD SVG 20010904//EN" "http://www.w3.org/TR/2001/REC-SVG-20010904/DTD/svg10.dtd">
<svg xmlns="http://www.w3.org/2000/svg" version="1.0" width="1200pt" height="307pt" viewBox="0 0 1200.000000 307.000000" preserveAspectRatio="xMidYMid meet" style="zoom: 1;" visibility="visible"><metadata visibility="visible">Created by potrace 1.10, written by Peter Selinger 2001-2011</metadata><g stroke="none" transform="translate(0.000000 207.000000) scale(0.068579 -0.1)" fill="#000000" visibility="visible"><path d="M1290,1734 c-231,-39 -363,-76.5 -493,-141 c-221,-112.5 -358,-282 -391,-483 l-6,-42 l535,0 c475,0 535,3 535,22.5 c0,46.5 40,139.5 85,199.5 c26,34.5 89,91.5 141,129 c53,37.5 115,88.5 138,112.5 c56,58.5 140,180 132,193.5 c-7,10.5 -619,18 -676,9 m453,-40.5 c89,-3 121,-10.5 127,-27 c10,-24 -21,-69 -80,-114 c-19,-15 -38,-33 -42,-42 c-4,-7.5 -11,-15 -15,-16.5 c-4,0 -24,-12 -43,-27 c-128,-94.5 -198,-180 -236,-286.5 l-22,-60 l-496,-3 c-273,-1.5 -495,1.5 -493,7.5 c2,6 11,36 21,67.5 c9,30 21,55.5 27,55.5 c6,0 7,7.5 4,15 c-3,9 -3,15 2,15 c4,0 24,22.5 43,49.5 c19,28.5 55,69 78,91.5 c102,96 334,205.5 497,234 c55,9 114,21 130,25.5 c37,9 309,28.5 350,24 c17,-1.5 83,-6 148,-9 " visibility="visible"></path><path d="M2097,1690 c141,-75 300,-225 362,-343.5 c37,-69 70,-175.5 71,-222 c0,-33 3,-34.5 104,-34.5 l104,0 l-7,49.5 c-14,90 -43,160.5 -99,237 c-99,135 -220,219 -431,298.5 c-133,49.5 -183,57 -104,15 m346,-184.5 c20,-12 34,-25.5 30,-30 c-3,-6 1,-10.5 11,-10.5 c43,0 175,-171 193,-247.5 c16,-70.5 7,-82.5 -53,-82.5 c-43,0 -56,6 -60,27 c-8,39 -55,168 -73,202.5 c-9,15 -35,58.5 -59,94.5 c-47,72 -46,75 11,46.5 " visibility="visible"></path><path d="M423.5,967.999878 c50,-312 335,-529.5 802,-612 c136,-24 482,-31.5 658,-13.5 l105,10.5 l-27,42 l-28,43.5 l124,0 c68,0 121,-3 118,-7.5 c-3,-4.5 -25,-18 -49,-28.5 c-80,-37.5 -9,-24 112,21 c205,76.5 347,175.5 432,297 c55,79.5 73,120 90,210 l16,78 l-1180,0 l-1179,0 l6,-40.5 m1043,-45 c7,-24 24,-58.5 37,-79.5 c13,-21 37,-60 52,-85.5 c15,-27 36,-51 47,-54 c11,-1.5 26,-9 33,-16.5 c7,-6 18,-6 25,1.5 c7,6 190,9 407,4.5 l395,-7.5 l-32,-33 c-31,-34.5 -35,-34.5 -346,-34.5 c-299,0 -317,1.5 -366,31.5 c-28,18 -55,27 -59,21 c-4,-6 -1,-15 7,-19.5 c7,-3 21,-18 31,-33 c19,-28.5 41,-42 87,-54 c26,-7.5 116,-121.5 120,-151.5 c1,-7.5 -15,-18 -35,-21 c-64,-9 -534,-6 -592,4.5 c-30,6 -75,15 -100,19.5 c-79,13.5 -224,55.5 -242,69 c-10,7.5 -30,13.5 -46,13.5 c-15,0 -32,6 -37,12 c-6,6 -35,24 -65,40.5 c-30,15 -73,43.5 -94,64.5 c-22,19.5 -45,37.5 -51,39 c-30,6 -135,145.5 -135,177 c0,9 -3,12 -7,7.5 c-8,-13.5 -34,94.5 -27,112.5 c3,6 225,12 493,12 l488,0 l12,-40.5 m1101,34.5 c0,-4.5 -4,-24 -10,-45 l-10,-39 l-518,0 l-519,0 l-11,37.5 c-7,21 -12,42 -12,45 c0,4.5 243,7.5 540,7.5 c297,0 540,-3 540,-6 m152,-19.5 c9,-60 -44,-160.5 -127,-244.5 c-27,-28.5 -53,-55.5 -56,-63 c-3,-7.5 -15,-15 -26,-18 c-12,-4.5 -35,-18 -53,-31.5 c-43,-33 -47,-21 -10,37.5 c16,27 30,57 30,69 c0,12 7,21 16,21 c19,0 54,54 54,82.5 c0,10.5 9,34.5 19,55.5 c11,19.5 23,55.5 26,76.5 c7,37.5 11,40.5 65,40.5 c48,0 59,-4.5 62,-25.5 m-204,-154.5 l-22,-45 l-443,0 l-443,0 l-32,45 l-33,43.5 l498,1.5 l498,0 l-23,-45 m-168,-226.5 c0,-4.5 -20,-22.5 -45,-40.5 c-42,-30 -61,-33 -220,-33 c-173,0 -176,0 -215,39 c-22,22.5 -40,40.5 -40,42 c0,0 117,1.5 260,1.5 c143,0 260,-3 260,-9 "></path><text stroke="none" style="outline-style: none;" id="text1" stroke-width="1px" x="3565.165039px" text-rendering="geometricPrecision" font-family="AlNile-Bold" fill="#000000" font-size="100px" y="1462.49231px" transform="" text-anchor="middle"></text></g><text stroke="none" style="outline-style:none;" id="text2" stroke-width="1px" x="581.999634px" text-rendering="geometricPrecision" font-family="Comic Sans MS" fill="#000000" font-size="100px" y="99.001213px" transform="" text-anchor="middle">|国|家|大|剧|院|</text><text stroke="none" style="outline-style: none;" id="text4" stroke-width="1px" x="578.999146px" text-rendering="geometricPrecision" font-family="Helvetica" fill="#000000" font-size="78px" y="283.503479px" transform="" text-anchor="middle">FOR THE PERFORMING ARTS</text><text stroke="none" style="outline-style: none;" id="text3" stroke-width="1px" x="581.249268px" text-rendering="geometricPrecision" font-family="Helvetica" fill="#000000" font-size="78px" y="190.502335px" transform="" text-anchor="middle">NATIONAL CENTRE </text></svg>