<?xml version="1.0"?>
<svg width="640" height="480" xmlns="http://www.w3.org/2000/svg" xmlns:svg="http://www.w3.org/2000/svg" xmlns:xlink="http://www.w3.org/1999/xlink">
 <!-- Created with SVG-edit - https://github.com/SVG-Edit/svgedit-->
 <defs>
  <symbol height="268.000000pt" id="svg_1" preserveAspectRatio="xMidYMid meet" version="1" viewBox="0 0 784.000000 268.000000" width="784.000000pt" xmlns="http://www.w3.org/2000/svg">
   <metadata>Created by potrace 1.10, written by Peter Selinger 2001-2011</metadata>
   <g fill="#000000" transform="translate(0.000000,268.000000) scale(0.100000,-0.100000)">
    <path d="m0,1340l0,-1340l3920,0l3920,0l0,1340l0,1340l-3920,0l-3920,0l0,-1340zm1093,545l2,-365l-367,0l-368,0l0,368l0,367l365,-2l366,-3l2,-365zm184,300c2,-6 -9,-11 -24,-10c-30,0 -40,-20 -23,-45c8,-12 13,-13 30,-2c16,10 20,10 20,-2c0,-32 -69,-30 -72,2c-3,33 3,56 15,64c16,11 49,6 54,-7zm43,-5c0,-29 37,-27 43,3c2,12 4,-3 4,-33c0,-30 -2,-43 -4,-27c-6,37 -43,39 -43,2c0,-14 -4,-25 -10,-25c-5,0 -10,23 -10,50c0,28 5,50 10,50c6,0 10,-9 10,-20zm90,-30c0,-27 -4,-50 -10,-50c-5,0 -10,23 -10,50c0,28 5,50 10,50c6,0 10,-22 10,-50zm30,-10l-7,-45l-2,55c0,32 3,50 8,45c5,-6 5,-30 1,-55zm60,9c0,-44 -2,-50 -15,-39c-8,7 -12,17 -8,24c4,6 6,23 4,38c-1,16 2,28 8,28c7,0 11,-21 11,-51zm74,11c9,-22 16,-46 16,-52c0,-22 -23,10 -25,34c-1,12 -8,24 -15,26c-8,3 -11,-1 -8,-10c3,-8 -3,-25 -13,-39c-10,-13 -19,-21 -19,-18c0,15 33,99 40,99c4,0 15,-18 24,-40zm-104,-11c0,-6 -4,-7 -10,-4c-5,3 -10,11 -10,16c0,6 5,7 10,4c6,-3 10,-11 10,-16zm616,-14c4,-8 7,-26 8,-40c1,-23 4,-24 33,-19c78,15 106,-20 61,-76c-13,-15 -28,-36 -34,-46c-19,-32 -29,-6 -11,31c18,37 10,50 -23,40c-12,-4 -20,-15 -20,-29c0,-13 -3,-38 -6,-56c-7,-31 -6,-32 22,-26c19,4 36,1 49,-8c19,-13 17,-15 -26,-36l-46,-23l-7,-86c-7,-96 -14,-131 -27,-131c-5,0 -9,44 -9,98c0,94 -1,99 -21,98c-31,-1 -35,20 -4,28c24,6 25,10 25,71c0,55 -3,65 -17,65c-10,0 -25,5 -33,10c-12,7 -8,12 18,21c28,10 32,15 32,47c0,68 21,106 36,67zm974,-34c0,-5 -11,-18 -26,-28c-32,-24 -24,-56 12,-47c28,7 30,-3 10,-49c-11,-26 -30,-41 -100,-77c-72,-36 -89,-41 -97,-29c-13,21 -13,22 54,52c73,33 118,66 100,74c-7,2 -13,16 -13,30c0,26 -12,27 -63,7c-10,-3 -20,3 -27,15c-10,20 -8,21 27,21c21,0 54,9 73,19c40,23 50,25 50,12zm-500,-58c0,-10 9,-12 34,-8c64,13 99,-31 56,-70c-29,-26 -26,-47 5,-39c18,4 25,2 25,-9c0,-9 -14,-17 -37,-22c-55,-10 -113,-46 -120,-75c-8,-29 -100,-130 -119,-130c-21,0 -17,14 12,41c32,30 68,88 60,96c-3,3 -25,-4 -49,-16c-34,-17 -48,-20 -69,-12c-43,16 -40,27 15,41c69,17 77,24 70,66c-7,42 10,45 27,4c15,-37 27,-38 40,-4c14,35 12,71 -2,77c-9,3 -7,9 6,19c15,12 18,22 12,54l-8,39l21,-19c12,-11 21,-25 21,-33zm960,2c-25,-26 -13,-41 26,-31c37,10 44,-21 12,-48c-32,-26 -48,-86 -23,-86c9,0 19,9 22,20c4,16 8,18 19,9c18,-15 18,-37 -1,-55c-8,-9 -15,-20 -15,-25c0,-5 7,-9 15,-9c8,0 15,5 15,10c0,6 5,10 10,10c6,0 10,-14 10,-30c0,-27 -3,-30 -24,-24c-21,5 -24,1 -30,-30c-9,-48 -50,-96 -67,-79c-10,10 -9,16 3,30c16,19 38,76 38,99c0,24 -28,15 -34,-10c-7,-28 -61,-71 -76,-61c-6,4 2,18 20,35c42,39 41,62 -2,39c-37,-20 -43,6 -8,37c22,20 30,34 26,49c-4,14 1,25 14,33c20,12 28,42 12,42c-5,0 -19,-11 -32,-25c-49,-52 -69,-18 -23,41c20,26 23,38 15,46c-18,18 -14,30 7,23c11,-3 34,3 52,13c40,23 50,10 19,-23zm458,6c9,-5 13,-23 10,-52l-3,-44l40,4c22,1 52,9 67,17c31,16 66,18 87,5c12,-8 12,-13 -3,-35c-21,-33 -36,-33 -36,0c0,14 -3,24 -7,22c-49,-24 -63,-32 -63,-40c0,-4 7,-8 15,-8c8,0 15,-6 15,-14c0,-7 9,-16 20,-19c12,-3 20,-14 20,-25c0,-23 -16,-43 -82,-102c-39,-34 -49,-39 -54,-26c-4,10 5,25 25,42c36,30 38,40 11,47c-11,3 -20,13 -20,22c0,11 6,15 18,11c10,-4 27,0 38,8c19,15 19,15 -3,37c-22,22 -23,22 -42,5c-20,-18 -21,-18 -31,9c-8,22 -14,25 -22,17c-20,-20 -28,-14 -34,29c-4,22 -14,47 -22,56c-14,14 -14,17 3,29c22,16 34,17 53,5zm112,-21c0,-11 -4,-20 -9,-20c-5,0 -11,9 -14,20c-3,13 0,20 9,20c8,0 14,-9 14,-20zm-2860,-35c-6,-7 -8,-25 -4,-39c4,-16 2,-26 -5,-26c-7,0 -11,20 -11,51c0,45 2,50 15,39c11,-9 12,-16 5,-25zm50,-16c0,-27 -4,-48 -8,-45c-5,3 -7,24 -6,48c3,51 3,48 9,48c3,0 5,-23 5,-51zm64,35c8,-21 8,-26 -2,-20c-5,3 -14,-11 -21,-30c-7,-18 -17,-34 -22,-34c-6,0 -8,6 -5,13c2,6 10,29 17,50c13,40 23,46 33,21zm96,6c0,-5 -4,-10 -10,-10c-5,0 -10,-18 -10,-40c0,-22 -4,-40 -10,-40c-5,0 -10,18 -10,40c0,22 -4,40 -10,40c-5,0 -10,5 -10,10c0,6 14,10 30,10c17,0 30,-4 30,-10zm40,-40c0,-27 -4,-50 -10,-50c-5,0 -10,23 -10,50c0,28 5,50 10,50c6,0 10,-22 10,-50zm84,34c9,-8 16,-22 16,-30c0,-53 -62,-76 -80,-29c-21,54 26,97 64,59zm70,-25c38,-56 28,-70 -11,-15c-17,24 -29,47 -26,50c9,9 8,10 37,-35zm36,10c0,-17 -4,-28 -10,-24c-5,3 -10,17 -10,31c0,13 5,24 10,24c6,0 10,-14 10,-31zm73,-20c16,-51 16,-52 -3,-31c-11,12 -17,28 -14,36c4,11 0,16 -10,16c-16,0 -21,12 -9,23c13,14 20,6 36,-44zm47,11c0,-33 3,-40 20,-40c11,0 20,-4 20,-10c0,-5 -13,-10 -30,-10c-29,0 -30,1 -30,50c0,28 5,50 10,50c6,0 10,-18 10,-40zm1190,10c0,-11 -7,-20 -15,-20c-15,0 -21,21 -8,33c12,13 23,7 23,-13zm180,-21c0,-3 14,-9 30,-12c21,-5 30,-12 30,-26c0,-14 -5,-18 -19,-14c-10,3 -31,-3 -45,-12c-14,-10 -33,-15 -41,-11c-19,7 -19,40 0,56c8,7 15,24 15,39c1,25 1,25 15,7c8,-11 15,-23 15,-27zm-1905,0c11,-17 -1,-21 -15,-4c-8,9 -8,15 -2,15c6,0 14,-5 17,-11zm455,-2c0,-15 -29,-57 -30,-42c0,6 3,20 6,33c7,24 24,31 24,9zm-342,-18c7,-12 11,-24 8,-27c-6,-6 -35,27 -36,41c0,14 15,7 28,-14zm238,-26c-11,-11 -19,6 -11,24c8,17 8,17 12,0c3,-10 2,-21 -1,-24zm369,-3c12,-24 13,-35 4,-52c-14,-25 -23,-13 -33,45c-8,45 7,49 29,7zm1735,-89c0,-90 -13,-121 -52,-121c-25,0 -24,40 2,47c27,7 33,34 26,122c-6,69 -5,74 9,57c11,-14 15,-44 15,-105zm217,-30c0,-103 -9,-141 -22,-88c-8,32 -23,221 -18,229c2,4 12,-1 22,-11c15,-15 18,-35 18,-130zm-289,117c14,-14 16,-48 4,-48c-8,0 -32,43 -32,55c0,9 16,5 28,-7zm-590,-24c18,-5 22,-12 18,-33c-3,-14 -8,-45 -11,-69c-7,-44 -47,-102 -70,-102c-27,0 -28,39 -1,62c45,42 68,134 26,108c-10,-7 -11,-10 -2,-10c9,0 10,-4 0,-19c-6,-10 -18,-17 -25,-14c-7,3 -19,0 -27,-6c-18,-15 -48,-3 -44,18c2,9 26,28 53,43c58,31 53,29 83,22zm125,-38c-1,-19 6,-35 25,-51c21,-19 24,-26 15,-36c-10,-10 -15,-9 -28,1c-8,7 -15,19 -15,26c0,25 -22,15 -33,-16c-12,-32 -41,-40 -51,-14c-4,9 6,30 24,52c16,20 30,45 30,55c0,12 6,17 18,15c12,-3 16,-12 15,-32zm-1899,-22c33,-32 14,-84 -31,-84c-33,0 -49,44 -28,76c18,28 37,30 59,8zm94,-16c3,-22 -2,-29 -22,-34c-14,-3 -26,-12 -26,-20c0,-8 -4,-14 -8,-14c-5,0 -7,13 -4,28c3,24 8,28 28,24c18,-3 24,0 24,13c0,13 -6,16 -25,13c-24,-5 -32,2 -18,16c17,16 48,0 51,-26zm87,22c4,-6 -5,-10 -19,-10c-14,0 -26,-4 -26,-10c0,-5 9,-10 20,-10c11,0 20,-5 20,-11c0,-6 -9,-8 -20,-4c-16,5 -20,2 -20,-15c0,-17 5,-21 20,-17c11,3 23,1 26,-4c3,-5 -11,-9 -30,-9c-36,0 -36,0 -36,43c0,24 3,47 7,50c10,11 51,8 58,-3zm86,-6c10,-12 10,-20 1,-34c-8,-14 -8,-21 2,-29c11,-9 17,-4 30,23c9,19 16,40 16,46c0,10 3,10 15,0c8,-7 13,-16 10,-20c-3,-5 -1,-10 4,-12c14,-5 25,-58 13,-58c-6,0 -13,13 -17,30c-7,32 -29,55 -23,24c4,-23 -20,-54 -42,-54c-8,0 -21,9 -28,20c-7,11 -17,20 -22,20c-6,0 -10,-9 -10,-20c0,-11 -4,-20 -10,-20c-14,0 -12,74 2,88c17,17 43,15 59,-4zm1099,-41c25,-32 22,-47 -13,-51c-22,-3 -27,1 -27,19c0,12 -7,31 -17,41c-15,17 -15,18 10,18c16,0 33,-10 47,-27zm1611,-6c-1,-4 -1,-21 -1,-37c0,-23 -6,-33 -26,-42c-22,-10 -32,-8 -70,12c-67,37 -57,49 21,25c15,-4 25,2 40,25c18,27 38,37 36,17zm-3023,-134c-2,-12 4,-18 17,-18c13,0 20,7 19,18c-1,9 2,17 7,17c5,0 9,-23 9,-51c0,-27 -4,-48 -9,-45c-5,3 -7,15 -4,26c4,16 0,20 -20,20c-20,0 -24,-4 -20,-19c3,-10 0,-22 -6,-25c-7,-5 -11,10 -11,43c0,29 5,51 10,51c6,0 10,-8 8,-17zm146,-2c21,-23 15,-51 -14,-69c-30,-18 -60,4 -60,45c0,45 43,59 74,24zm46,-8c-3,-45 -1,-53 15,-53c16,0 18,8 15,53c-1,15 3,27 9,27c19,0 13,-78 -6,-89c-30,-16 -53,5 -53,49c0,22 5,40 11,40c6,0 10,-12 9,-27zm135,16c4,-6 4,-13 0,-17c-3,-3 -10,0 -15,7c-5,9 -15,11 -26,6c-16,-6 -15,-9 14,-21c37,-16 41,-38 11,-55c-18,-9 -25,-7 -42,10c-12,12 -16,21 -10,21c7,0 15,-4 18,-10c8,-13 35,-13 35,0c0,6 -11,15 -25,20c-24,9 -32,29 -18,43c10,11 51,8 58,-4zm63,4c-35,-5 -37,-23 -3,-23c14,0 25,-4 25,-10c0,-5 -11,-10 -25,-10c-16,0 -25,-6 -25,-15c0,-10 10,-15 33,-15c20,0 27,-3 19,-8c-7,-5 -25,-7 -40,-4c-25,3 -27,7 -27,48c0,44 0,44 35,43c30,-2 31,-3 8,-6z"/>
    <path d="m906,2222c-21,-4 -21,-21 0,-37c15,-11 15,-15 -7,-46c-13,-19 -30,-38 -36,-42c-10,-6 -13,-53 -13,-178l0,-169l24,6c17,4 30,0 44,-14c11,-11 18,-23 15,-26c-3,-3 -2,-13 2,-23c5,-10 9,-20 10,-23c1,-3 5,-13 9,-23c5,-10 3,-23 -4,-32c-19,-23 -422,-22 -445,1c-13,13 -13,19 -3,31c7,8 13,21 14,28c6,42 30,70 62,73l33,3l-2,182c-1,127 2,182 10,185c8,3 11,-51 11,-192l0,-196l-45,0c-25,0 -45,-4 -45,-10c0,-8 346,-20 370,-12c27,9 5,22 -37,22l-48,0l1,192c2,177 3,193 20,193c9,0 19,6 21,13c4,9 -28,12 -136,12c-139,0 -141,0 -141,-22c-1,-18 -5,-15 -20,16c-11,22 -20,43 -20,47c0,19 91,31 208,27c67,-2 122,0 122,4c0,4 -108,8 -239,8c-220,0 -240,-1 -245,-17c-8,-26 -3,-637 5,-643c4,-3 155,-5 336,-5l328,0l0,330l0,330l-71,5c-39,3 -79,4 -88,2zm-226,-297c0,-151 -3,-195 -13,-195c-9,0 -12,42 -11,188c1,211 1,202 14,202c6,0 10,-72 10,-195zm40,0c0,-123 -4,-195 -10,-195c-6,0 -10,72 -10,195c0,123 4,195 10,195c6,0 10,-72 10,-195zm40,0c0,-123 -4,-195 -10,-195c-6,0 -10,72 -10,195c0,123 4,195 10,195c6,0 10,-72 10,-195zm41,182c-1,-4 -1,-90 -1,-192c0,-117 -4,-185 -10,-185c-6,0 -10,72 -10,196c0,135 3,195 11,192c6,-2 10,-7 10,-11z"/>
    <path d="m560,2170c0,-6 63,-10 170,-10c107,0 170,4 170,10c0,6 -63,10 -170,10c-107,0 -170,-4 -170,-10z"/>
    <path d="m530,1678c0,-5 3,-8 8,-8c158,-4 387,0 389,7c2,4 -87,8 -197,8c-110,0 -200,-3 -200,-7z"/>
    <path d="m516,1643c-19,-19 14,-23 215,-23c172,0 220,3 217,13c-4,9 -57,13 -215,14c-116,1 -213,0 -217,-4z"/>
    <path d="m2066,2028c-3,-17 -4,-33 -1,-36c3,-3 5,2 5,10c0,9 7,18 15,22c19,7 20,36 1,36c-7,0 -16,-14 -20,-32z"/>
    <path d="m2156,2045c4,-8 12,-15 20,-15c20,0 17,7 -6,20c-16,9 -18,8 -14,-5z"/>
    <path d="m2076,1884c-9,-23 -2,-28 13,-10c7,8 8,17 3,20c-6,3 -13,-1 -16,-10z"/>
    <path d="m2573,1989c-15,-6 -23,-17 -23,-33c0,-13 -3,-31 -6,-40c-4,-11 -1,-16 10,-16c10,0 23,15 32,36c20,47 16,64 -13,53z"/>
    <path d="m2488,1862c-10,-2 -18,-8 -18,-13c0,-13 27,-11 35,2c9,13 4,16 -17,11z"/>
    <path d="m3467,2004c-12,-12 -8,-20 11,-20c9,-1 25,-4 35,-9c9,-4 17,-3 17,3c0,5 -8,12 -17,16c-10,3 -23,8 -29,11c-5,3 -13,2 -17,-1z"/>
    <path d="m3473,1865c-6,-14 -7,-26 -2,-26c24,-4 69,-4 69,0c0,4 -49,51 -53,51c-1,0 -7,-11 -14,-25z"/>
    <path d="m4091,1841c-8,-5 -9,-11 -3,-15c5,-3 12,1 16,9c6,17 6,18 -13,6z"/>
    <path d="m1514,1996c-9,-24 4,-48 23,-44c24,4 24,52 0,56c-9,2 -20,-4 -23,-12z"/>
    <path d="m3136,1943c-6,-14 -5,-15 5,-6c7,7 10,15 7,18c-3,3 -9,-2 -12,-12z"/>
    <path d="m2970,1860c0,-5 5,-10 10,-10c6,0 10,5 10,10c0,6 -4,10 -10,10c-5,0 -10,-4 -10,-10z"/>
    <path d="m1225,1819c-10,-30 18,-57 39,-39c21,16 20,46 0,54c-25,10 -32,7 -39,-15z"/>
    <path d="m1490,1824c0,-9 7,-14 17,-12c25,5 28,28 4,28c-12,0 -21,-6 -21,-16z"/>
    <path d="m1320,1651c-13,-25 -3,-51 20,-51c25,0 33,16 26,46c-8,29 -31,32 -46,5z"/>
   </g>
  </symbol>
 </defs>
 <g class="layer">
  <title>Layer 1</title>
  <use id="svg_2" transform="matrix(1.85316 0 0 1.70217 8.08049 7.34067)" x="0" xlink:href="#svg_1" y="0"/>
  <rect fill="#FF0000" height="10" id="svg_3" stroke="#000000" width="0" x="3320" y="3450"/>
 </g>
</svg>