<?xml version="1.0" standalone="yes"?>
<!DOCTYPE svg PUBLIC "-//W3C//DTD SVG 20010904//EN" "http://www.w3.org/TR/2001/REC-SVG-20010904/DTD/svg10.dtd">
<svg xmlns="http://www.w3.org/2000/svg" height="225pt" style="zoom: 1;" visibility="visible" cursor="default" width="1225pt" version="1.0" preserveAspectRatio="xMidYMid meet" viewBox="0 0 1225.000000 225.000000"><metadata>Created by potrace 1.10, written by Peter Selinger 2001-2011</metadata><g stroke="none" transform="translate(0.000000,225.000000) scale(0.050000,-0.050000)" fill="#000000"><path d="M340,4269.75 c0,-213 805,-967 888,-832 c25,40 -151,285 -348,483 c-286,288 -540,452 -540,349 " visibility="visible"></path><path d="M120,3727.75 c0,-41 102,-172 206,-267 c509,-458 1265,-792 914,-402 c-326,360 -1120,835 -1120,669 "></path><path d="M2350,3118.75 c-526,-86 -705,-634 -332,-1010 c239,-239 505,-237 648,7 c104,179 51,352 -182,595 c-214,222 -181,299 120,284 c271,-13 570,-200 747,-467 c625,-941 -771,-1903 -2361,-1627 c-279,48 -546,63 -554,30 c-15,-59 906,-389 1310,-470 c1111,-223 1985,186 2095,980 c117,840 -739,1802 -1491,1678 m-138,-333 c32,-31 58,-60 58,-65 c1,-20 70,-108 70,-89 c0,10 12,0 25,-23 c14,-23 55,-82 92,-130 c53,-71 65,-103 59,-163 c-4,-42 2,-75 13,-75 c11,0 -8,-28 -41,-62 c-52,-51 -78,-61 -157,-61 c-104,0 -136,15 -90,44 c24,16 24,18 -5,19 c-194,1 -311,416 -164,580 c86,95 69,92 140,25 m1448,-1262 c-1,-189 -34,-344 -77,-359 c-11,-3 -16,-19 -10,-33 c6,-16 -8,-33 -32,-41 c-22,-7 -41,-19 -41,-28 c0,-46 -238,-251 -371,-319 c-82,-42 -143,-82 -136,-90 c8,-7 -6,-13 -30,-13 c-23,0 -43,-10 -43,-21 c0,-12 -8,-17 -17,-11 c-10,6 -71,-3 -135,-20 c-120,-31 -680,-43 -788,-17 c-27,7 -88,20 -135,28 c-113,20 -131,41 -35,41 c77,0 86,17 17,30 c-20,4 -41,9 -47,11 c-23,9 157,37 244,38 c51,0 99,10 106,21 c7,11 52,20 100,20 c48,0 93,9 100,20 c7,11 43,20 81,20 c38,0 69,9 69,20 c0,11 20,20 43,20 c64,0 318,122 304,146 c-8,13 8,15 45,6 c37,-8 48,-7 31,5 c-35,23 1,48 45,31 c25,-9 29,-4 19,22 c-11,28 -5,32 30,21 c33,-11 40,-7 31,18 c-9,22 0,31 28,31 c23,0 53,11 68,25 c14,14 59,49 98,79 c99,74 229,215 222,240 c-3,12 9,15 30,7 c29,-11 31,-8 11,12 c-35,35 -31,64 7,49 c25,-10 30,-3 22,28 c-6,22 -2,35 7,29 c20,-12 79,94 79,142 c0,28 5,29 30,9 c23,-19 30,-70 30,-217 "></path><path d="M123,3083.75 c-201,-134 1097,-817 1492,-785 c46,4 26,78 -38,142 c-283,283 -1311,738 -1454,643 "></path><path d="M159,2322.75 c-147,-29 -160,-92 -37,-181 c376,-273 1778,-479 1778,-262 c0,209 -1278,533 -1741,443 m900,-242 c64,0 83,-6 67,-22 c-27,-27 -179,-28 -251,0 c-79,30 -68,49 20,35 c41,-7 115,-13 164,-13 "></path><path d="M789.666748,1538.083252 c-592,-48 -654,-254 -124,-407 c688,-199 1696,-152 1696,78 c0,191 -920,383 -1572,329 m660,-169 c98,-6 188,-17 200,-26 c12,-9 63,-19 112,-22 c50,-3 99,-13 109,-24 c10,-10 39,-18 64,-18 c47,0 88,-39 43,-41 c-14,-1 -8,-9 14,-18 c31,-12 14,-21 -80,-41 c-164,-34 -904,0 -932,44 c-7,10 -40,19 -75,20 c-35,1 -63,8 -63,15 c0,6 -56,30 -125,52 l-125,39 l125,6 c70,3 125,15 125,27 c0,14 71,17 215,8 c118,-6 295,-16 393,-21 "></path><path d="M4138,1190.75 c-213,-115 -8,-469 211,-365 c90,43 124,132 93,237 c-40,133 -184,194 -304,128 "></path><path d="M3660,566.75 c-198,-72 -143,-371 74,-400 c222,-30 283,284 74,384 c-66,31 -97,34 -148,16 "></path></g><text stroke="none" style="outline-style: none;" id="text1" stroke-width="1px" x="643.083374px" text-rendering="geometricPrecision" font-family="Times" fill="#000000" font-size="90px" y="137px" transform="" text-anchor="middle">The Phoenix Symphony</text></svg>