<?xml version="1.0" standalone="no"?>
<!DOCTYPE svg PUBLIC "-//W3C//DTD SVG 20010904//EN"
 "http://www.w3.org/TR/2001/REC-SVG-20010904/DTD/svg10.dtd">
<svg version="1.0" xmlns="http://www.w3.org/2000/svg"
 width="784.000000pt" height="268.000000pt" viewBox="0 0 784.000000 268.000000"
 preserveAspectRatio="xMidYMid meet">
<metadata>
Created by potrace 1.10, written by Peter Selinger 2001-2011
</metadata>
<g transform="translate(0.000000,268.000000) scale(0.100000,-0.100000)"
fill="#000000" stroke="none">
<path d="M0 1340 l0 -1340 3920 0 3920 0 0 1340 0 1340 -3920 0 -3920 0 0
-1340z m1093 545 l2 -365 -367 0 -368 0 0 368 0 367 365 -2 366 -3 2 -365z
m184 300 c2 -6 -9 -11 -24 -10 -30 0 -40 -20 -23 -45 8 -12 13 -13 30 -2 16
10 20 10 20 -2 0 -32 -69 -30 -72 2 -3 33 3 56 15 64 16 11 49 6 54 -7z m43
-5 c0 -29 37 -27 43 3 2 12 4 -3 4 -33 0 -30 -2 -43 -4 -27 -6 37 -43 39 -43
2 0 -14 -4 -25 -10 -25 -5 0 -10 23 -10 50 0 28 5 50 10 50 6 0 10 -9 10 -20z
m90 -30 c0 -27 -4 -50 -10 -50 -5 0 -10 23 -10 50 0 28 5 50 10 50 6 0 10 -22
10 -50z m30 -10 l-7 -45 -2 55 c0 32 3 50 8 45 5 -6 5 -30 1 -55z m60 9 c0
-44 -2 -50 -15 -39 -8 7 -12 17 -8 24 4 6 6 23 4 38 -1 16 2 28 8 28 7 0 11
-21 11 -51z m74 11 c9 -22 16 -46 16 -52 0 -22 -23 10 -25 34 -1 12 -8 24 -15
26 -8 3 -11 -1 -8 -10 3 -8 -3 -25 -13 -39 -10 -13 -19 -21 -19 -18 0 15 33
99 40 99 4 0 15 -18 24 -40z m-104 -11 c0 -6 -4 -7 -10 -4 -5 3 -10 11 -10 16
0 6 5 7 10 4 6 -3 10 -11 10 -16z m616 -14 c4 -8 7 -26 8 -40 1 -23 4 -24 33
-19 78 15 106 -20 61 -76 -13 -15 -28 -36 -34 -46 -19 -32 -29 -6 -11 31 18
37 10 50 -23 40 -12 -4 -20 -15 -20 -29 0 -13 -3 -38 -6 -56 -7 -31 -6 -32 22
-26 19 4 36 1 49 -8 19 -13 17 -15 -26 -36 l-46 -23 -7 -86 c-7 -96 -14 -131
-27 -131 -5 0 -9 44 -9 98 0 94 -1 99 -21 98 -31 -1 -35 20 -4 28 24 6 25 10
25 71 0 55 -3 65 -17 65 -10 0 -25 5 -33 10 -12 7 -8 12 18 21 28 10 32 15 32
47 0 68 21 106 36 67z m974 -34 c0 -5 -11 -18 -26 -28 -32 -24 -24 -56 12 -47
28 7 30 -3 10 -49 -11 -26 -30 -41 -100 -77 -72 -36 -89 -41 -97 -29 -13 21
-13 22 54 52 73 33 118 66 100 74 -7 2 -13 16 -13 30 0 26 -12 27 -63 7 -10
-3 -20 3 -27 15 -10 20 -8 21 27 21 21 0 54 9 73 19 40 23 50 25 50 12z m-500
-58 c0 -10 9 -12 34 -8 64 13 99 -31 56 -70 -29 -26 -26 -47 5 -39 18 4 25 2
25 -9 0 -9 -14 -17 -37 -22 -55 -10 -113 -46 -120 -75 -8 -29 -100 -130 -119
-130 -21 0 -17 14 12 41 32 30 68 88 60 96 -3 3 -25 -4 -49 -16 -34 -17 -48
-20 -69 -12 -43 16 -40 27 15 41 69 17 77 24 70 66 -7 42 10 45 27 4 15 -37
27 -38 40 -4 14 35 12 71 -2 77 -9 3 -7 9 6 19 15 12 18 22 12 54 l-8 39 21
-19 c12 -11 21 -25 21 -33z m960 2 c-25 -26 -13 -41 26 -31 37 10 44 -21 12
-48 -32 -26 -48 -86 -23 -86 9 0 19 9 22 20 4 16 8 18 19 9 18 -15 18 -37 -1
-55 -8 -9 -15 -20 -15 -25 0 -5 7 -9 15 -9 8 0 15 5 15 10 0 6 5 10 10 10 6 0
10 -14 10 -30 0 -27 -3 -30 -24 -24 -21 5 -24 1 -30 -30 -9 -48 -50 -96 -67
-79 -10 10 -9 16 3 30 16 19 38 76 38 99 0 24 -28 15 -34 -10 -7 -28 -61 -71
-76 -61 -6 4 2 18 20 35 42 39 41 62 -2 39 -37 -20 -43 6 -8 37 22 20 30 34
26 49 -4 14 1 25 14 33 20 12 28 42 12 42 -5 0 -19 -11 -32 -25 -49 -52 -69
-18 -23 41 20 26 23 38 15 46 -18 18 -14 30 7 23 11 -3 34 3 52 13 40 23 50
10 19 -23z m458 6 c9 -5 13 -23 10 -52 l-3 -44 40 4 c22 1 52 9 67 17 31 16
66 18 87 5 12 -8 12 -13 -3 -35 -21 -33 -36 -33 -36 0 0 14 -3 24 -7 22 -49
-24 -63 -32 -63 -40 0 -4 7 -8 15 -8 8 0 15 -6 15 -14 0 -7 9 -16 20 -19 12
-3 20 -14 20 -25 0 -23 -16 -43 -82 -102 -39 -34 -49 -39 -54 -26 -4 10 5 25
25 42 36 30 38 40 11 47 -11 3 -20 13 -20 22 0 11 6 15 18 11 10 -4 27 0 38 8
19 15 19 15 -3 37 -22 22 -23 22 -42 5 -20 -18 -21 -18 -31 9 -8 22 -14 25
-22 17 -20 -20 -28 -14 -34 29 -4 22 -14 47 -22 56 -14 14 -14 17 3 29 22 16
34 17 53 5z m112 -21 c0 -11 -4 -20 -9 -20 -5 0 -11 9 -14 20 -3 13 0 20 9 20
8 0 14 -9 14 -20z m-2860 -35 c-6 -7 -8 -25 -4 -39 4 -16 2 -26 -5 -26 -7 0
-11 20 -11 51 0 45 2 50 15 39 11 -9 12 -16 5 -25z m50 -16 c0 -27 -4 -48 -8
-45 -5 3 -7 24 -6 48 3 51 3 48 9 48 3 0 5 -23 5 -51z m64 35 c8 -21 8 -26 -2
-20 -5 3 -14 -11 -21 -30 -7 -18 -17 -34 -22 -34 -6 0 -8 6 -5 13 2 6 10 29
17 50 13 40 23 46 33 21z m96 6 c0 -5 -4 -10 -10 -10 -5 0 -10 -18 -10 -40 0
-22 -4 -40 -10 -40 -5 0 -10 18 -10 40 0 22 -4 40 -10 40 -5 0 -10 5 -10 10 0
6 14 10 30 10 17 0 30 -4 30 -10z m40 -40 c0 -27 -4 -50 -10 -50 -5 0 -10 23
-10 50 0 28 5 50 10 50 6 0 10 -22 10 -50z m84 34 c9 -8 16 -22 16 -30 0 -53
-62 -76 -80 -29 -21 54 26 97 64 59z m70 -25 c38 -56 28 -70 -11 -15 -17 24
-29 47 -26 50 9 9 8 10 37 -35z m36 10 c0 -17 -4 -28 -10 -24 -5 3 -10 17 -10
31 0 13 5 24 10 24 6 0 10 -14 10 -31z m73 -20 c16 -51 16 -52 -3 -31 -11 12
-17 28 -14 36 4 11 0 16 -10 16 -16 0 -21 12 -9 23 13 14 20 6 36 -44z m47 11
c0 -33 3 -40 20 -40 11 0 20 -4 20 -10 0 -5 -13 -10 -30 -10 -29 0 -30 1 -30
50 0 28 5 50 10 50 6 0 10 -18 10 -40z m1190 10 c0 -11 -7 -20 -15 -20 -15 0
-21 21 -8 33 12 13 23 7 23 -13z m180 -21 c0 -3 14 -9 30 -12 21 -5 30 -12 30
-26 0 -14 -5 -18 -19 -14 -10 3 -31 -3 -45 -12 -14 -10 -33 -15 -41 -11 -19 7
-19 40 0 56 8 7 15 24 15 39 1 25 1 25 15 7 8 -11 15 -23 15 -27z m-1905 0
c11 -17 -1 -21 -15 -4 -8 9 -8 15 -2 15 6 0 14 -5 17 -11z m455 -2 c0 -15 -29
-57 -30 -42 0 6 3 20 6 33 7 24 24 31 24 9z m-342 -18 c7 -12 11 -24 8 -27 -6
-6 -35 27 -36 41 0 14 15 7 28 -14z m238 -26 c-11 -11 -19 6 -11 24 8 17 8 17
12 0 3 -10 2 -21 -1 -24z m369 -3 c12 -24 13 -35 4 -52 -14 -25 -23 -13 -33
45 -8 45 7 49 29 7z m1735 -89 c0 -90 -13 -121 -52 -121 -25 0 -24 40 2 47 27
7 33 34 26 122 -6 69 -5 74 9 57 11 -14 15 -44 15 -105z m217 -30 c0 -103 -9
-141 -22 -88 -8 32 -23 221 -18 229 2 4 12 -1 22 -11 15 -15 18 -35 18 -130z
m-289 117 c14 -14 16 -48 4 -48 -8 0 -32 43 -32 55 0 9 16 5 28 -7z m-590 -24
c18 -5 22 -12 18 -33 -3 -14 -8 -45 -11 -69 -7 -44 -47 -102 -70 -102 -27 0
-28 39 -1 62 45 42 68 134 26 108 -10 -7 -11 -10 -2 -10 9 0 10 -4 0 -19 -6
-10 -18 -17 -25 -14 -7 3 -19 0 -27 -6 -18 -15 -48 -3 -44 18 2 9 26 28 53 43
58 31 53 29 83 22z m125 -38 c-1 -19 6 -35 25 -51 21 -19 24 -26 15 -36 -10
-10 -15 -9 -28 1 -8 7 -15 19 -15 26 0 25 -22 15 -33 -16 -12 -32 -41 -40 -51
-14 -4 9 6 30 24 52 16 20 30 45 30 55 0 12 6 17 18 15 12 -3 16 -12 15 -32z
m-1899 -22 c33 -32 14 -84 -31 -84 -33 0 -49 44 -28 76 18 28 37 30 59 8z m94
-16 c3 -22 -2 -29 -22 -34 -14 -3 -26 -12 -26 -20 0 -8 -4 -14 -8 -14 -5 0 -7
13 -4 28 3 24 8 28 28 24 18 -3 24 0 24 13 0 13 -6 16 -25 13 -24 -5 -32 2
-18 16 17 16 48 0 51 -26z m87 22 c4 -6 -5 -10 -19 -10 -14 0 -26 -4 -26 -10
0 -5 9 -10 20 -10 11 0 20 -5 20 -11 0 -6 -9 -8 -20 -4 -16 5 -20 2 -20 -15 0
-17 5 -21 20 -17 11 3 23 1 26 -4 3 -5 -11 -9 -30 -9 -36 0 -36 0 -36 43 0 24
3 47 7 50 10 11 51 8 58 -3z m86 -6 c10 -12 10 -20 1 -34 -8 -14 -8 -21 2 -29
11 -9 17 -4 30 23 9 19 16 40 16 46 0 10 3 10 15 0 8 -7 13 -16 10 -20 -3 -5
-1 -10 4 -12 14 -5 25 -58 13 -58 -6 0 -13 13 -17 30 -7 32 -29 55 -23 24 4
-23 -20 -54 -42 -54 -8 0 -21 9 -28 20 -7 11 -17 20 -22 20 -6 0 -10 -9 -10
-20 0 -11 -4 -20 -10 -20 -14 0 -12 74 2 88 17 17 43 15 59 -4z m1099 -41 c25
-32 22 -47 -13 -51 -22 -3 -27 1 -27 19 0 12 -7 31 -17 41 -15 17 -15 18 10
18 16 0 33 -10 47 -27z m1611 -6 c-1 -4 -1 -21 -1 -37 0 -23 -6 -33 -26 -42
-22 -10 -32 -8 -70 12 -67 37 -57 49 21 25 15 -4 25 2 40 25 18 27 38 37 36
17z m-3023 -134 c-2 -12 4 -18 17 -18 13 0 20 7 19 18 -1 9 2 17 7 17 5 0 9
-23 9 -51 0 -27 -4 -48 -9 -45 -5 3 -7 15 -4 26 4 16 0 20 -20 20 -20 0 -24
-4 -20 -19 3 -10 0 -22 -6 -25 -7 -5 -11 10 -11 43 0 29 5 51 10 51 6 0 10 -8
8 -17z m146 -2 c21 -23 15 -51 -14 -69 -30 -18 -60 4 -60 45 0 45 43 59 74 24z
m46 -8 c-3 -45 -1 -53 15 -53 16 0 18 8 15 53 -1 15 3 27 9 27 19 0 13 -78 -6
-89 -30 -16 -53 5 -53 49 0 22 5 40 11 40 6 0 10 -12 9 -27z m135 16 c4 -6 4
-13 0 -17 -3 -3 -10 0 -15 7 -5 9 -15 11 -26 6 -16 -6 -15 -9 14 -21 37 -16
41 -38 11 -55 -18 -9 -25 -7 -42 10 -12 12 -16 21 -10 21 7 0 15 -4 18 -10 8
-13 35 -13 35 0 0 6 -11 15 -25 20 -24 9 -32 29 -18 43 10 11 51 8 58 -4z m63
4 c-35 -5 -37 -23 -3 -23 14 0 25 -4 25 -10 0 -5 -11 -10 -25 -10 -16 0 -25
-6 -25 -15 0 -10 10 -15 33 -15 20 0 27 -3 19 -8 -7 -5 -25 -7 -40 -4 -25 3
-27 7 -27 48 0 44 0 44 35 43 30 -2 31 -3 8 -6z"/>
<path d="M906 2222 c-21 -4 -21 -21 0 -37 15 -11 15 -15 -7 -46 -13 -19 -30
-38 -36 -42 -10 -6 -13 -53 -13 -178 l0 -169 24 6 c17 4 30 0 44 -14 11 -11
18 -23 15 -26 -3 -3 -2 -13 2 -23 5 -10 9 -20 10 -23 1 -3 5 -13 9 -23 5 -10
3 -23 -4 -32 -19 -23 -422 -22 -445 1 -13 13 -13 19 -3 31 7 8 13 21 14 28 6
42 30 70 62 73 l33 3 -2 182 c-1 127 2 182 10 185 8 3 11 -51 11 -192 l0 -196
-45 0 c-25 0 -45 -4 -45 -10 0 -8 346 -20 370 -12 27 9 5 22 -37 22 l-48 0 1
192 c2 177 3 193 20 193 9 0 19 6 21 13 4 9 -28 12 -136 12 -139 0 -141 0
-141 -22 -1 -18 -5 -15 -20 16 -11 22 -20 43 -20 47 0 19 91 31 208 27 67 -2
122 0 122 4 0 4 -108 8 -239 8 -220 0 -240 -1 -245 -17 -8 -26 -3 -637 5 -643
4 -3 155 -5 336 -5 l328 0 0 330 0 330 -71 5 c-39 3 -79 4 -88 2z m-226 -297
c0 -151 -3 -195 -13 -195 -9 0 -12 42 -11 188 1 211 1 202 14 202 6 0 10 -72
10 -195z m40 0 c0 -123 -4 -195 -10 -195 -6 0 -10 72 -10 195 0 123 4 195 10
195 6 0 10 -72 10 -195z m40 0 c0 -123 -4 -195 -10 -195 -6 0 -10 72 -10 195
0 123 4 195 10 195 6 0 10 -72 10 -195z m41 182 c-1 -4 -1 -90 -1 -192 0 -117
-4 -185 -10 -185 -6 0 -10 72 -10 196 0 135 3 195 11 192 6 -2 10 -7 10 -11z"/>
<path d="M560 2170 c0 -6 63 -10 170 -10 107 0 170 4 170 10 0 6 -63 10 -170
10 -107 0 -170 -4 -170 -10z"/>
<path d="M530 1678 c0 -5 3 -8 8 -8 158 -4 387 0 389 7 2 4 -87 8 -197 8 -110
0 -200 -3 -200 -7z"/>
<path d="M516 1643 c-19 -19 14 -23 215 -23 172 0 220 3 217 13 -4 9 -57 13
-215 14 -116 1 -213 0 -217 -4z"/>
<path d="M2066 2028 c-3 -17 -4 -33 -1 -36 3 -3 5 2 5 10 0 9 7 18 15 22 19 7
20 36 1 36 -7 0 -16 -14 -20 -32z"/>
<path d="M2156 2045 c4 -8 12 -15 20 -15 20 0 17 7 -6 20 -16 9 -18 8 -14 -5z"/>
<path d="M2076 1884 c-9 -23 -2 -28 13 -10 7 8 8 17 3 20 -6 3 -13 -1 -16 -10z"/>
<path d="M2573 1989 c-15 -6 -23 -17 -23 -33 0 -13 -3 -31 -6 -40 -4 -11 -1
-16 10 -16 10 0 23 15 32 36 20 47 16 64 -13 53z"/>
<path d="M2488 1862 c-10 -2 -18 -8 -18 -13 0 -13 27 -11 35 2 9 13 4 16 -17
11z"/>
<path d="M3467 2004 c-12 -12 -8 -20 11 -20 9 -1 25 -4 35 -9 9 -4 17 -3 17 3
0 5 -8 12 -17 16 -10 3 -23 8 -29 11 -5 3 -13 2 -17 -1z"/>
<path d="M3473 1865 c-6 -14 -7 -26 -2 -26 24 -4 69 -4 69 0 0 4 -49 51 -53
51 -1 0 -7 -11 -14 -25z"/>
<path d="M4091 1841 c-8 -5 -9 -11 -3 -15 5 -3 12 1 16 9 6 17 6 18 -13 6z"/>
<path d="M1514 1996 c-9 -24 4 -48 23 -44 24 4 24 52 0 56 -9 2 -20 -4 -23
-12z"/>
<path d="M3136 1943 c-6 -14 -5 -15 5 -6 7 7 10 15 7 18 -3 3 -9 -2 -12 -12z"/>
<path d="M2970 1860 c0 -5 5 -10 10 -10 6 0 10 5 10 10 0 6 -4 10 -10 10 -5 0
-10 -4 -10 -10z"/>
<path d="M1225 1819 c-10 -30 18 -57 39 -39 21 16 20 46 0 54 -25 10 -32 7
-39 -15z"/>
<path d="M1490 1824 c0 -9 7 -14 17 -12 25 5 28 28 4 28 -12 0 -21 -6 -21 -16z"/>
<path d="M1320 1651 c-13 -25 -3 -51 20 -51 25 0 33 16 26 46 -8 29 -31 32
-46 5z"/>
</g>
</svg>
