<?xml version="1.0" standalone="yes"?>
<!DOCTYPE svg PUBLIC "-//W3C//DTD SVG 20010904//EN" "http://www.w3.org/TR/2001/REC-SVG-20010904/DTD/svg10.dtd">
<svg xmlns="http://www.w3.org/2000/svg" version="1.0" width="1200pt" height="245pt" viewBox="0 0 1200.000000 245.000000" preserveAspectRatio="xMidYMid meet" style="zoom: 1;" visibility="visible"><metadata>Created by potrace 1.10, written by Peter Selinger 2001-2011</metadata><g transform="translate(0.000000,245.000000) scale(0.100000,-0.100000)" fill="#000000" stroke="none"><path d="M1640 2166 l0 -186 25 0 25 0 -2 183 c-3 180 -3 182 -25 185 l-23 3 0 -185z"></path><path d="M1593 2311 c-20 -17 -21 -25 -20 -171 2 -151 2 -153 25 -155 l22 -2 0 174 c0 95 -1 173 -2 173 -2 -1 -13 -9 -25 -19z"></path><path d="M1527 2265 c-17 -12 -19 -30 -20 -149 -2 -134 -2 -136 20 -136 22 0 22 3 25 150 2 83 1 150 -2 150 -3 0 -13 -7 -23 -15z"></path><path d="M1415 2189 c-66 -44 -83 -65 -40 -49 15 6 36 8 47 4 18 -5 19 -14 16 -90 -2 -46 -1 -84 2 -84 3 0 15 3 28 6 21 6 22 10 22 130 0 68 -3 124 -7 123 -5 0 -35 -18 -68 -40z m42 -36 c-3 -3 -11 -2 -17 2 -9 6 -9 10 1 16 14 8 27 -7 16 -18z"></path><path d="M1321,2109 c-13,-5 -60,-38 -105,-73 c-183,-143 -275,-285 -284,-437 c-4,-73 -2,-84 26,-142 c46,-92 129,-167 244,-221 c51,-24 114,-49 139,-55 c26,-6 54,-13 63,-17 c9,-3 16,-2 16,3 c0,6 -19,15 -42,22 c-137,41 -286,158 -340,269 c-29,58 -33,76 -33,147 c0,73 3,87 41,166 c34,70 60,105 137,185 c52,54 113,110 136,124 c55,34 56,51 2,29 m-328,-409 c-3,-11 -10,-20 -15,-20 c-6,0 -8,-7 -4,-15 c3,-8 1,-15 -4,-15 c-15,0 -12,23 6,48 c19,27 24,28 17,2 m-14,-122 c1,-23 5,-46 8,-51 c3,-6 1,-7 -5,-3 c-7,4 -12,3 -12,-3 c0,-5 3,-11 8,-13 c17,-7 43,-71 32,-82 c-9,-9 -15,3 -11,27 c0,4 -3,7 -8,7 c-19,0 -37,75 -33,138 c3,38 18,24 21,-20 m56,-178 c-3,-5 0,-12 7,-17 c7,-4 20,-17 28,-28 c8,-11 1,-8 -16,8 c-27,24 -44,65 -22,51 c5,-3 6,-9 3,-14 "></path><path d="M1525,1952 c-20,-3 -20,-9 -17,-560 c2,-524 3,-557 20,-554 c9,2 18,5 20,6 c1,2 1,252 0,557 c-3,548 -3,554 -23,551 "></path><path d="M1571 1401 l0 -559 25 -5 24 -4 0 563 0 564 -25 0 -25 0 1 -559z"></path><path d="M1450 1943 c-14 -3 -59 -18 -101 -34 -75 -29 -75 -29 -92 -81 -9 -29 -14 -54 -12 -57 3 -2 15 5 28 16 26 25 115 78 146 88 l21 6 -2 -540 c-2 -298 -2 -541 0 -541 1 0 14 7 27 16 l25 16 0 559 c0 308 -3 558 -7 558 -5 -1 -19 -4 -33 -6z m7 -38 c0 -8 -4 -12 -9 -9 -5 3 -6 10 -3 15 9 13 12 11 12 -6z m-27 1 c0 -2 -7 -7 -16 -10 -8 -3 -12 -2 -9 4 6 10 25 14 25 6z m-103 -44 c-9 -2 -15 -8 -12 -13 4 -5 1 -9 -4 -9 -14 0 -14 13 1 28 6 6 16 8 22 4 7 -4 4 -8 -7 -10z m140 -894 c-2 -13 -4 -5 -4 17 -1 22 1 32 4 23 2 -10 2 -28 0 -40z"></path><path d="M1640,1392 c0,-529 1,-560 18,-575 c10,-10 22,-17 26,-17 c4,0 6,80 4,178 l-3,179 l66,17 c155,40 263,115 313,219 c110,228 -31,467 -319,542 c-32,8 -70,15 -82,15 l-23,0 l0,-558 m170,499 c70,-26 147,-94 185,-162 c27,-49 30,-63 29,-144 c0,-76 -4,-99 -27,-150 c-15,-32 -39,-74 -53,-92 c-37,-49 -123,-110 -193,-138 l-61,-24 l0,371 l0,371 l33,-6 c17,-3 57,-14 87,-26 m246,-236 c-3,-8 -1,-15 5,-15 c6,0 8,-9 4,-20 c-3,-11 -2,-20 3,-20 c5,0 8,-30 5,-67 c-4,-69 -42,-173 -63,-173 c-6,0 -8,-4 -5,-10 c3,-5 1,-10 -5,-10 c-6,0 -8,-4 -5,-10 c3,-6 -1,-7 -10,-4 c-9,4 -15,2 -13,-3 c4,-11 -53,-65 -61,-58 c-3,3 6,16 21,28 c27,24 73,87 63,87 c-4,0 3,12 14,26 c12,15 21,37 21,49 c0,12 6,28 13,34 c14,11 16,129 3,150 c-4,6 -4,16 -1,21 c10,15 18,12 11,-5 "></path></g><text stroke="none" style="outline-style: none;" id="text1" stroke-width="1px" x="508.497009px" text-rendering="geometricPrecision" font-family="AcademyEngravedLetPlain" fill="#000000" font-size="93px" y="94.503052px" transform="" text-anchor="middle">中国爱乐乐团</text><text stroke="none" style="outline-style: none;" id="text2" stroke-width="1px" x="509.997925px" text-rendering="geometricPrecision" font-family="Times" fill="#000000" font-size="36px" y="157.505081px" transform="" text-anchor="middle">CHINA  PHILHARMONIC  ORCHESTRA</text></svg>