<svg xmlns="http://www.w3.org/2000/svg" xmlns:xlink="http://www.w3.org/1999/xlink" id="Layer_1" x="0px" y="0px" viewBox="0 0 958.9 228" style="enable-background:new 0 0 958.9 228;" xml:space="preserve"><style type="text/css">	.st0{opacity:0.8;fill:#FFFFFF;enable-background:new    ;}	.st1{opacity:0.6;fill:#FFFFFF;enable-background:new    ;}	.st2{opacity:0.4;fill:#FFFFFF;enable-background:new    ;}	.st3{opacity:0.3;fill:#FFFFFF;enable-background:new    ;}	.st4{opacity:0.15;fill:#FFFFFF;enable-background:new    ;}	.st5{fill:#FFFFFF;}</style><g>	<path class="st0" d="M110.8,152.7c-2.3-6.3-24-12.5-48.2-13.7s-42,3-39.6,9.3c1.9,5.1,16.2,10,34.3,12.4c4.5,0.6,9.2,1,14,1.3  c21.8,1.1,38.4-2.2,39.7-7.5C111.1,153.9,111.1,153.3,110.8,152.7"></path>	<path class="st1" d="M94.9,127.9c-0.8-5-19.5-12.5-41.5-16.6S14,108,14.8,113.1s19.5,12.5,41.5,16.6  C78.3,133.8,95.7,132.9,94.9,127.9"></path>	<path class="st2" d="M83.8,109.2c1-3.8-13-14-31.1-22.7S18.9,74,17.9,77.8s13,14,31.1,22.7S82.8,113,83.8,109.2"></path>	<path class="st3" d="M70.1,84.1c2-2.6-8-12.9-22.2-22.9S20.6,45.1,18.6,47.8s8,12.9,22.1,22.9S68.1,86.8,70.1,84.1"></path>	<path class="st4" d="M65.2,62.3c2.5-1.5-3.7-11.1-13.8-21.4S31,23.6,28.5,25.1s3.7,11.1,13.8,21.4S62.7,63.8,65.2,62.3"></path>	<path class="st5" d="M166.7,186.3c-3.3,3.2-3.1,8.8,0.4,12.4s9.1,3.9,12.4,0.6s3.1-8.8-0.4-12.4S170,183.1,166.7,186.3"></path>	<path class="st5" d="M201.2,159.4c-3.5-3.6-9.1-3.9-12.4-0.6s-3.1,8.8,0.4,12.4s9.1,3.9,12.4,0.6S204.7,163,201.2,159.4"></path>	<path class="st5" d="M98.2,82.4c-7.9,6.5-10.6,22-1.1,33.4s19.6,12.7,26,7.4c7.3-6,8.4-16.8,2.5-24.1c-0.1-0.1-0.2-0.2-0.3-0.3  c-7.1-8.6-22.2-18.1-1.2-18.6c23.4-0.5,60.9,38.9,22.8,70.4c-24,19.8-55.7,24.5-88,19.9c-3.2-0.5-6.5-1-9.7-1.6  c-9.6-1.4-16.3-1.7-17.2-0.6c-0.8,1,2.7,2.8,8.9,5c35.2,15.5,86.7,30.6,119.1,3.8C212.5,133.8,138.9,48.8,98.2,82.4"></path>	<path class="st5" d="M277.2,88.2l-1.8,0.1l-0.2-2.9c-0.5-6.4-2.7-11.7-12.2-11.7h-4v46.2h7.1v1.8h-21.5v-1.8h7.1V73.7h-4  c-8.6,0-11.9,4.2-12.2,11.7l-0.1,2.9l-1.8-0.1l0.6-16.3h42.2L277.2,88.2z"></path>	<path class="st5" d="M317.7,119.9v1.8h-17.5v-1.8h5.4V97.6c0-4.8-2.1-6.9-5.2-6.9c-6.3,0-9.6,8.3-9.6,12.8v16.5h5.8v1.8h-17.9v-1.8  h5.9V73.7h-5.9v-1.9c4,0.1,8.1-0.3,12-1.1v26.2c1.6-4.1,4.9-8.9,11.5-8.9c6.2,0,9.6,4.1,9.6,11.8v20.1H317.7z"></path>	<path class="st5" d="M340.1,102.3c0.2-6.3-1.8-12.4-7-12.4c-5,0-7.8,5.4-8.3,12.4H340.1z M347.2,115.6c-2.9,4.4-7.7,7-12.9,7.1  c-8.4,0-16.3-7-16.3-17.4c0-10.1,7.5-17.3,16.1-17.3c8.9,0,12.8,7.2,12.8,14.8c0,0.4,0,0.8,0,1.3h-22.2  c-0.2,10.4,3.6,16.3,10.8,16.3c4.2-0.1,8.1-2.3,10.3-5.9L347.2,115.6z"></path>	<path class="st5" d="M383.2,73.7v25c1.9,0.7,4,1,6,1c8.6,0,11.4-5.8,11.4-13.1c0-9.5-6.2-13-13.7-13L383.2,73.7z M383.2,100.6v19.3  h7.9v1.9h-22.3v-1.9h7.1V73.7h-7.1v-1.9h20.4c11.8,0,19.4,5.6,19.4,15c0,7.8-5.5,14.8-18,14.8C388,101.7,385.6,101.3,383.2,100.6"></path>	<path class="st5" d="M448.2,119.9v1.8h-17.4v-1.8h5.4V97.6c0-4.8-2.1-6.9-5.2-6.9c-6.3,0-9.6,8.3-9.6,12.8v16.5h5.8v1.8h-17.9v-1.8  h5.9V73.7h-5.9v-1.9c4,0.1,8.1-0.3,12-1.1v26.2c1.6-4.1,4.9-8.9,11.5-8.9c6.2,0,9.6,4.1,9.6,11.8v20.1H448.2z"></path>	<path class="st5" d="M464.9,89.8c-6.8,0-9.6,6.8-9.6,15.4c0,9.1,2.9,15.7,9.5,15.7s9.5-6.6,9.5-15.7  C474.4,96.6,471.6,89.8,464.9,89.8 M481.1,105.4c0,10.2-7.8,17.3-16.3,17.3s-16.2-7.2-16.2-17.3S456.3,88,464.8,88  S481.1,95.1,481.1,105.4"></path>	<path class="st5" d="M506.4,102.3c0.2-6.3-1.8-12.4-7-12.4c-5,0-7.8,5.4-8.3,12.4H506.4z M513.5,115.6c-2.9,4.4-7.7,7-12.9,7.1  c-8.4,0-16.3-7-16.3-17.4c0-10.1,7.5-17.3,16.1-17.3c8.9,0,12.8,7.2,12.8,14.8c0,0.4,0,0.8,0,1.3H491c-0.2,10.4,3.6,16.3,10.8,16.3  c4.2-0.1,8.1-2.3,10.3-5.9L513.5,115.6z"></path>	<path class="st5" d="M554.1,119.9v1.8h-17.4v-1.8h5.3V97.7c0-5-2.1-7-5.3-7c-6.2,0-9,8.1-9,12.2v17h5.4v1.8h-17.5v-1.8h5.9V90.8  h-5.9v-1.8c4,0.1,8.1-0.3,12-1.1v8.5c1.5-3.8,4.5-8.3,10.8-8.3s9.7,4.1,9.7,11.7v20.2H554.1z"></path>	<path class="st5" d="M563.3,81.2c-2,0-3.6-1.6-3.6-3.5s1.6-3.6,3.5-3.6c2,0,3.6,1.6,3.6,3.5c0,0,0,0,0,0  C566.9,79.5,565.4,81.1,563.3,81.2C563.4,81.2,563.4,81.2,563.3,81.2 M572.5,119.9v1.8h-18v-1.8h5.9V90.8h-5.9v-1.8  c4,0.1,8.1-0.2,12-1.1v32.1H572.5z"></path>	<path class="st5" d="M607.5,119.9v1.8h-16.1v-1.8h4.7l-8-12.2l-3.8,5.2c-1,1.3-1.7,2.8-1.8,4.5c0,1.5,1,2.5,3,2.5h0.5v1.8h-13.4  v-1.8h0.2c2.9,0,6.3-3.2,9.9-8.2l4.2-5.7l-10-15.2h-4.2v-1.8h16v1.8h-4.6l7.2,11L594,98c1.1-1.4,1.8-3.1,2-4.8  c0.1-1.2-0.8-2.3-2.1-2.4c-0.1,0-0.3,0-0.4,0H593v-1.9h13.4v1.8H606c-3.4,0-6.1,2.3-9.7,7.3l-3.9,5.4l10.8,16.5L607.5,119.9z"></path>	<path class="st5" d="M634.1,80c0,5.4,4.7,8.1,12.8,11.6c10.7,4.6,16.6,7.9,16.6,16.7c0,9.4-7.3,14.8-16,14.8  c-4.8,0.1-9.4-1.7-12.8-5.2c-1.8,0.4-3.3,2.5-3.6,4.9h-1.7l-0.8-18.5h1.9c0.7,10.7,8.4,16.9,16.9,16.9c6.5,0,11-3.8,11-9.5  c0-6.2-4.3-8.4-14.6-12.7c-8.5-3.4-14.2-7.2-14.2-15.2c0-8.2,6.4-13.4,14.2-13.4c4.5,0,8.8,1.8,11.9,5c1.9-0.5,3.3-2.6,3.5-5h1.7  l0.5,18.1l-1.8,0.1c-0.8-9.2-7-16.3-16.2-16.3C638.1,72.4,634.1,75.1,634.1,80"></path>	<path class="st5" d="M666.1,132.9c0-2.7,1.7-4.9,4.2-4.9c2.1-0.1,3.8,1.5,3.9,3.5c0,0,0,0.1,0,0.1c0.1,1.8-1.3,3.2-3,3.3  c-0.1,0-0.2,0-0.3,0c-1.6,0.1-2.9-1-3.2-2.6c-0.1,2.4,1.7,4.5,4.2,4.6c0.2,0,0.4,0,0.6,0c4.3,0,6-3.8,7.5-7.7l2-5.4  c0.1-0.4,0.2-0.7,0.2-1.1c0-0.6-0.4-1-1.5-1H680l-11-31h-4.4v-1.8h15.7v1.8h-4.9l9.2,26.2l5.9-15.8c0.8-2,1.3-4,1.4-6.2  c0-2.7-1.2-4.2-3.7-4.2h-0.6v-1.9H701v1.8h-0.3c-3.2,0-5,2-8.8,12l-10,26.9c-1.8,4.7-4.1,9.1-9.3,9.1  C668.7,138.8,666.1,136.2,666.1,132.9"></path>	<path class="st5" d="M758,119.9v1.8h-17v-1.8h5V97.7c0-5.2-1.8-7-4.6-7c-6,0-8.5,7.8-8.5,12.6v16.7h4.9v1.8h-16.1v-1.8h5V97.7  c0-5.3-2.1-7-4.7-7c-5.9,0-8.5,8.5-8.5,12.6v16.7h5v1.8h-17v-1.8h5.9V90.8h-5.9v-1.8c4,0.1,8.1-0.2,12-1.1v8.5  C715,92.4,718,88,724,88c4.8,0,7.9,2.9,8.6,8.6c1.4-4.1,4.5-8.6,10.6-8.6c5.8,0,8.9,4.1,8.9,11.7v20.2L758,119.9z"></path>	<path class="st5" d="M777.6,120.5c6.4,0,9.4-6.8,9.4-15.5c0-9-3.4-14.9-9.2-14.9c-5.1,0-8.2,4.3-8.8,7.9c-0.3,2.1-0.4,4.1-0.4,6.2  c-0.1,3.3,0.2,6.7,0.8,9.9C770.4,117.9,773.8,120.6,777.6,120.5 M757,90.8v-1.8c4,0.1,8.1-0.3,12-1.1v6.4c1.1-2.8,4.5-6.2,10.3-6.2  c7.8,0,14.5,6.6,14.5,17.1s-6.6,17.6-14.8,17.6c-5.3,0-8.8-2.9-10-5.9v18.7h6v1.9h-18v-1.9h5.9V90.8H757z"></path>	<path class="st5" d="M833.2,119.9v1.8h-17.4v-1.8h5.4V97.6c0-4.8-2.1-6.9-5.2-6.9c-6.3,0-9.6,8.3-9.6,12.8v16.5h5.8v1.8h-17.9v-1.8  h5.9V73.7h-5.9v-1.9c4,0.1,8.1-0.3,12-1.1v26.2c1.6-4.1,4.9-8.9,11.5-8.9c6.2,0,9.6,4.1,9.6,11.8v20.1H833.2z"></path>	<path class="st5" d="M849.9,89.8c-6.8,0-9.6,6.8-9.6,15.4c0,9.1,2.9,15.7,9.5,15.7s9.5-6.6,9.5-15.7  C859.3,96.6,856.6,89.8,849.9,89.8 M866.1,105.4c0,10.2-7.8,17.3-16.3,17.3s-16.2-7.2-16.2-17.3S841.3,88,849.8,88  S866.1,95.1,866.1,105.4"></path>	<path class="st5" d="M906.3,119.9v1.8h-17.4v-1.8h5.3V97.7c0-5-2.1-7-5.3-7c-6.2,0-9,8.1-9,12.2v17h5.4v1.8h-17.5v-1.8h5.9V90.8  h-5.9v-1.8c4.1,0.1,8.1-0.3,12.1-1.1v8.5c1.5-3.8,4.5-8.3,10.8-8.3s9.7,4.1,9.7,11.7v20.2H906.3z"></path>	<path class="st5" d="M904.8,132.9c0-2.7,1.7-4.9,4.2-4.9c2.1-0.1,3.8,1.5,3.9,3.5c0,0,0,0.1,0,0.1c0.1,1.8-1.3,3.2-3.1,3.3  c-0.1,0-0.1,0-0.2,0c-1.6,0.1-2.9-1-3.2-2.6c-0.1,2.4,1.7,4.5,4.1,4.6c0.2,0,0.4,0,0.6,0c4.3,0,6.1-3.8,7.5-7.7l2-5.4  c0.1-0.4,0.2-0.7,0.2-1.1c0-0.6-0.3-1-1.5-1h-0.8l-10.9-31h-4.4v-1.9H919v1.8h-4.9l9.2,26.2l5.9-15.8c0.8-2,1.3-4,1.4-6.2  c0-2.7-1.2-4.2-3.7-4.2h-0.6v-1.9h13.4v1.8h-0.3c-3.2,0-5.1,2-8.8,12l-10,26.9c-1.7,4.7-4.1,9.1-9.3,9.1  C907.4,138.8,904.8,136.2,904.8,132.9"></path>	<path class="st5" d="M253.2,160.7h-8.1v-2.9h19.6v2.9h-8.1v20.8h-3.3L253.2,160.7z"></path>	<path class="st5" d="M267.4,157.8h3.3v3.3h-3.3V157.8z M267.4,164.5h3.3v17h-3.3V164.5z"></path>	<path class="st5" d="M276.5,167.4h-2.2v-2.6h2.3v-4.9h3.2v4.9h4.1v2.6h-4.1v7.6c0,3.4,2.4,3.8,3.6,3.8c0.3,0,0.5,0,0.8-0.1v2.9  c-0.4,0-0.8,0.1-1.1,0.1c-2.2,0-6.5-0.7-6.5-6.4V167.4z"></path>	<path class="st5" d="M295.7,164.1c4.9,0.1,8.8,4.3,8.6,9.2s-4.3,8.8-9.2,8.6c-4.8-0.1-8.6-4.1-8.6-8.9c0-4.9,4-8.9,8.9-8.9  C295.5,164.1,295.6,164.1,295.7,164.1z M295.7,179.1c3.4,0.1,6.2-2.5,6.3-5.8c0.1-3.4-2.5-6.2-5.8-6.3c-3.4-0.1-6.2,2.5-6.3,5.8  c0,0.1,0,0.1,0,0.2c-0.1,3.2,2.4,6,5.6,6.1C295.6,179.1,295.6,179.1,295.7,179.1L295.7,179.1z"></path>	<path class="st5" d="M319.2,157.8h3.5l5.4,12.8c0.5,1.3,1.2,3.2,1.2,3.2h0.1c0,0,0.6-1.9,1.2-3.2l5.4-12.8h3.5l1.9,23.7h-3.3  l-1.2-14.9c-0.1-1.4,0-3.5,0-3.5h-0.1c0,0-0.7,2.2-1.3,3.5l-4.7,10.7h-3l-4.7-10.7c-0.5-1.3-1.3-3.6-1.3-3.6h-0.1  c0,0,0,2.1-0.1,3.6l-1.1,14.9h-3.3L319.2,157.8z"></path>	<path class="st5" d="M346.2,164.5h3.3v10.1c0,2.4,0.5,4.2,3.2,4.2c3.5,0,5.5-3.1,5.5-6.4v-8h3.3v17h-3.2v-2.2c0-0.4,0-0.8,0.1-1.2  h-0.1c-1.1,2.4-3.6,3.9-6.2,3.9c-3.8,0-5.8-2-5.8-6.5L346.2,164.5z"></path>	<path class="st5" d="M366.5,164.5h3.2v2.2c0,0.4,0,0.8-0.1,1.2h0.1c1.2-2.4,3.7-3.9,6.4-3.9c4,0,5.9,2.2,5.9,6.5v10.9h-3.3v-10.1  c0-2.4-0.5-4.3-3.2-4.3c-2.5,0-4.7,1.7-5.4,4.2c-0.2,0.7-0.3,1.5-0.3,2.3v8h-3.3V164.5z M372.3,157.8c2.2,0,2.8,2.3,4.2,2.3  c1,0,1.3-1.2,1.3-2.2h2.4c0,2.8-1.1,4.3-3.4,4.3s-2.8-2.3-4.2-2.3c-1,0-1.3,1.2-1.3,2.2h-2.4C368.9,159.2,370,157.8,372.3,157.8z"></path>	<path class="st5" d="M394.7,164.1c4.9,0.1,8.8,4.3,8.6,9.2s-4.3,8.8-9.2,8.6c-4.8-0.1-8.6-4.1-8.6-8.9c0-4.9,4-8.9,8.8-8.9  C394.5,164.1,394.6,164.1,394.7,164.1z M394.7,179.1c3.4,0.1,6.2-2.5,6.3-5.8c0.1-3.4-2.5-6.2-5.8-6.3c-3.4-0.1-6.2,2.5-6.3,5.8  c0,0.1,0,0.1,0,0.2c-0.1,3.2,2.4,6,5.6,6.1C394.6,179.1,394.6,179.1,394.7,179.1L394.7,179.1z"></path>	<path class="st5" d="M406.4,179.7l8.6-10.8c0.7-0.9,1.4-1.6,1.4-1.6v-0.1c-0.5,0.1-1.1,0.1-1.6,0.1h-8v-2.8h14v1.9l-8.6,10.8  c-0.4,0.5-0.9,1.1-1.5,1.6v0.1c0.6-0.1,1.1-0.1,1.7-0.1h8.6v2.8h-14.6V179.7z"></path>	<path class="st5" d="M444.8,155.2h1.4v31.6h-1.4V155.2z"></path>	<path class="st5" d="M469.1,158h1.5l7.1,19c0.4,1.1,0.9,2.8,0.9,2.8h0.1c0,0,0.5-1.7,0.9-2.8l7.1-19h1.5l-8.8,23.5h-1.6L469.1,158z  "></path>	<path class="st5" d="M491.7,158h1.7v2.4h-1.7V158z M491.8,164.7h1.4v16.8h-1.4V164.7z"></path>	<path class="st5" d="M499.1,164.7h1.4v3.2c0,0.5,0,0.9-0.1,1.4h0.1c0.8-2.6,2.7-4.7,5.4-4.7c0.3,0,0.7,0,1,0.1v1.4  c-0.3,0-0.5-0.1-0.8-0.1c-2.6,0-4.3,2.2-5,4.7c-0.3,1.1-0.5,2.3-0.5,3.5v7.3h-1.4L499.1,164.7z"></path>	<path class="st5" d="M515.9,187.2c3.6,0,6.4-1.7,6.4-5.8v-1.9c0-0.5,0-0.9,0.1-1.4h-0.1c-1,2.2-3.2,3.5-5.6,3.4  c-4.4,0-7.5-3.4-7.5-8.7s2.9-8.5,7.2-8.5c4.8,0,5.8,3.3,5.8,3.3h0.1c-0.1-0.2-0.1-0.4-0.1-0.6v-2.2h1.4v16.7c0,5.1-3.7,7.1-7.7,7.1  c-1.8,0-3.6-0.5-5.3-1.3l0.7-1.2C512.8,186.8,514.3,187.2,515.9,187.2z M522.3,172.9c0-5.4-2.6-7.1-5.8-7.1c-3.6,0-5.7,2.6-5.7,7.1  s2.5,7.3,6.1,7.3C519.7,180.2,522.3,178.3,522.3,172.9L522.3,172.9z"></path>	<path class="st5" d="M529.4,158h1.7v2.4h-1.7V158z M529.6,164.7h1.4v16.8h-1.4L529.6,164.7z"></path>	<path class="st5" d="M536.9,164.7h1.4v3c0,0.5,0,0.9-0.1,1.4h0.1c1.2-2.9,4-4.7,7.1-4.7c4.4,0,5.5,2.6,5.5,6.6v10.6h-1.4v-10.2  c0-2.9-0.4-5.7-4.1-5.7c-3.2,0-6,2.2-6.8,5.3c-0.2,0.7-0.3,1.5-0.3,2.3v8.2h-1.4L536.9,164.7z"></path>	<path class="st5" d="M556.4,158h1.7v2.4h-1.7V158z M556.6,164.7h1.4v16.8h-1.4L556.6,164.7z"></path>	<path class="st5" d="M572.9,171.3h1.1v-0.6c0-3.7-1.9-5-4.6-5c-1.7,0-3.4,0.6-4.8,1.6l-0.8-1.1c1.6-1.3,3.6-1.9,5.7-1.9  c3.9,0,5.9,2.1,5.9,6.4v10.9H574v-2.2c0-0.5,0-1,0.1-1.5h-0.1c-0.9,2.4-3.3,4.1-5.9,4.1c-2.7,0-5.7-1.5-5.7-4.9  C562.5,171.4,569.9,171.3,572.9,171.3z M568.3,180.6c3.7,0,5.8-3.8,5.8-7.1v-0.9h-1c-2.9,0-9,0-9,4.4  C564,178.8,565.4,180.6,568.3,180.6L568.3,180.6z"></path>	<path class="st5" d="M601.2,157.6c3-0.1,5.9,0.8,8.2,2.7l-0.9,1.1c-2.1-1.6-4.7-2.4-7.3-2.4c-5.9,0-10.2,4.7-10.2,10.8  s4.2,10.8,10,10.8c3.1-0.1,6-1.5,8.1-3.9v-4.5h-4.2v-1.4h5.6v10.7h-1.4v-2c0-0.5,0-1,0-1H609c-2.1,2.2-5,3.5-8,3.5  c-6.5,0-11.5-5.3-11.5-12.2S594.6,157.6,601.2,157.6z"></path>	<path class="st5" d="M615.7,179.4h2v2.1h-2V179.4z"></path>	<path class="st5" d="M633.6,158h7.7c4.1,0,7.2,2.6,7.2,6.9s-3.1,6.9-7.2,6.9h-6.3v9.7h-1.4L633.6,158z M641.3,170.4  c3.4,0,5.7-2,5.7-5.6s-2.3-5.5-5.7-5.5h-6.2v11.1H641.3z"></path>	<path class="st5" d="M652.7,158h1.7v2.4h-1.7V158z M652.8,164.7h1.4v16.8h-1.4V164.7z"></path>	<path class="st5" d="M660.2,164.7h1.4v2c0,0.4,0,0.9-0.1,1.3h0.1c1-2.4,3.5-3.9,6-3.8c4.5,0,7.2,3.6,7.2,8.8s-3.1,8.8-7.5,8.8  c-2.5,0-4.8-1.5-5.9-3.8h-0.1c0.1,0.5,0.1,1,0.1,1.5v8.6h-1.4V164.7z M667.4,180.6c3.3,0,6-2.7,6-7.4c0-4.5-2.4-7.4-5.8-7.4  c-3.1,0-6,2.2-6,7.4C661.5,176.9,663.6,180.6,667.4,180.6z"></path>	<path class="st5" d="M686.6,164.3c4.6,0,6.8,3.6,6.8,7.7c0,0.3,0,0.6-0.1,0.9h-13.5c0,4.9,3.3,7.6,7.2,7.6c1.9,0,3.8-0.8,5.2-2.1  l0.8,1.2c-1.7,1.5-3.8,2.3-6,2.3c-4.7,0.1-8.5-3.6-8.7-8.2c0-0.2,0-0.4,0-0.5C678.4,167.5,682.3,164.3,686.6,164.3z M692,171.6  c-0.2-4.1-2.6-5.9-5.4-5.9c-3.4,0-6.2,2.6-6.5,5.9H692z"></path>	<path class="st5" d="M698.2,164.7h1.4v3.2c0,0.5,0,0.9-0.1,1.4h0.1c0.8-2.6,2.7-4.7,5.4-4.7c0.3,0,0.7,0,1,0.1v1.4  c-0.3,0-0.5-0.1-0.8-0.1c-2.6,0-4.3,2.2-5,4.7c-0.3,1.1-0.5,2.3-0.5,3.5v7.3h-1.4L698.2,164.7z"></path>	<path class="st5" d="M720.7,158h1.4l6.9,14.8c0.5,1.1,1.2,2.7,1.2,2.7h0.1c0,0,0.6-1.5,1.1-2.7l6.8-14.8h1.4l1.9,23.5H740  l-1.4-17.9c-0.1-1.1-0.1-3.1-0.1-3.1h-0.1c0,0-0.7,2-1.2,3.1l-6.3,13.4h-1.5l-6.3-13.4c-0.5-1.1-1.2-3.2-1.2-3.2h-0.1  c0,0,0,2.1-0.1,3.2l-1.5,17.9h-1.4L720.7,158z"></path>	<path class="st5" d="M747.1,164.7h1.4v10.1c0,2.9,0.4,5.7,4.1,5.7c4.2,0,6.9-3.7,6.9-7.6v-8.2h1.4v16.8h-1.4v-3  c0-0.5,0-0.9,0.1-1.4h-0.1c-1.2,2.8-3.9,4.7-7,4.7c-4.1,0-5.5-2.3-5.5-6.6L747.1,164.7z"></path>	<path class="st5" d="M766.4,178.4c1.4,1.4,3.3,2.1,5.2,2.1c2,0,3.9-1.1,3.9-3.1c0-4.3-9.2-3.1-9.2-8.5c0-3,2.5-4.5,5.4-4.5  c1.8-0.1,3.7,0.5,5,1.8l-0.8,1.1c-1.1-1.1-2.7-1.7-4.2-1.6c-1.9,0-3.8,0.9-3.8,3.1c0,4.4,9.2,3.1,9.2,8.6c0,2.7-2.3,4.5-5.4,4.5  c-2.3,0.1-4.5-0.8-6.1-2.4L766.4,178.4z"></path>	<path class="st5" d="M781.4,158h1.7v2.4h-1.7V158z M781.5,164.7h1.5v16.8h-1.4L781.5,164.7z"></path>	<path class="st5" d="M796.3,164.3c2.2-0.1,4.4,0.8,6,2.4l-0.9,1.1c-1.4-1.4-3.2-2.1-5.1-2.1c-4.1,0-7.4,3.3-7.4,7.4  c0,4.1,3.3,7.4,7.4,7.4c2.1,0,4.2-0.8,5.6-2.4l0.7,1.2c-1.7,1.7-4,2.7-6.3,2.6c-4.7,0.1-8.5-3.6-8.7-8.2c0-0.2,0-0.4,0-0.5  c-0.2-4.7,3.5-8.7,8.2-8.8C796.1,164.3,796.2,164.3,796.3,164.3z"></path>	<path class="st5" d="M817.3,158h7.4c7,0,11.7,4.3,11.7,11.8s-4.7,11.8-11.7,11.8h-7.4V158z M824.5,180.2c6.2,0,10.5-3.7,10.5-10.4  s-4.2-10.4-10.5-10.4h-5.7v20.8H824.5z"></path>	<path class="st5" d="M841.4,158h1.7v2.4h-1.7V158z M841.6,164.7h1.4v16.8h-1.4L841.6,164.7z"></path>	<path class="st5" d="M848.9,164.7h1.4v3.2c0,0.5,0,0.9-0.1,1.4h0.1c0.8-2.6,2.7-4.7,5.4-4.7c0.3,0,0.7,0,1,0.1v1.4  c-0.3,0-0.5-0.1-0.8-0.1c-2.6,0-4.3,2.2-5,4.7c-0.3,1.1-0.5,2.3-0.5,3.5v7.3h-1.4L848.9,164.7z"></path>	<path class="st5" d="M866.8,164.3c4.6,0,6.9,3.6,6.9,7.7c0,0.3,0,0.6-0.1,0.9h-13.5c0,4.9,3.3,7.6,7.2,7.6c1.9,0,3.8-0.8,5.2-2.1  l0.8,1.2c-1.7,1.5-3.8,2.3-6,2.3c-4.7,0.1-8.5-3.6-8.7-8.2c0-0.2,0-0.4,0-0.5C858.7,167.5,862.5,164.3,866.8,164.3z M872.2,171.6  c-0.2-4.1-2.6-5.9-5.4-5.9c-3.4,0-6.2,2.6-6.5,5.9H872.2z"></path>	<path class="st5" d="M885.9,164.3c2.2-0.1,4.4,0.8,6,2.4l-0.9,1.1c-1.4-1.4-3.2-2.1-5.1-2.1c-4.1,0-7.4,3.3-7.4,7.4  c0,4.1,3.3,7.4,7.4,7.4c2.1,0,4.2-0.8,5.6-2.4l0.7,1.2c-1.7,1.7-4,2.7-6.3,2.6c-4.9,0-8.8-3.9-8.8-8.8S881,164.3,885.9,164.3  L885.9,164.3z"></path>	<path class="st5" d="M897.4,166.1h-2.2v-1.3h2.2v-4.8h1.4v4.8h4.4v1.3h-4.4v9.2c0,4.4,2.7,5,4,5c0.3,0,0.5,0,0.8-0.1v1.3  c-0.3,0-0.6,0.1-0.8,0.1c-1.8,0-5.3-0.6-5.3-6.2V166.1z"></path>	<path class="st5" d="M914.9,164.3c4.8,0,8.7,3.8,8.7,8.6c0,0,0,0.1,0,0.1c0,4.8-3.9,8.7-8.7,8.7s-8.7-3.9-8.7-8.7  c0-4.8,3.8-8.7,8.6-8.7C914.8,164.3,914.9,164.3,914.9,164.3z M914.9,180.6c4,0,7.3-3.3,7.2-7.4c0-0.1,0-0.1,0-0.2  c0-4-3.2-7.2-7.2-7.2c-4,0-7.2,3.2-7.2,7.2l0,0c-0.1,4,3,7.4,7.1,7.5C914.8,180.6,914.9,180.6,914.9,180.6z"></path>	<path class="st5" d="M928.3,164.7h1.4v3.2c0,0.5,0,0.9-0.1,1.4h0.1c0.8-2.6,2.7-4.7,5.4-4.7c0.3,0,0.7,0,1,0.1v1.4  c-0.3,0-0.5-0.1-0.8-0.1c-2.6,0-4.3,2.2-5,4.7c-0.3,1.1-0.5,2.3-0.5,3.5v7.3h-1.4L928.3,164.7z"></path></g></svg>